<svg width="193" height="192" viewBox="0 0 193 192" fill="none" xmlns="http://www.w3.org/2000/svg">
    <g clip-path="url(#clip0_135_7561)">
        <path
            d="M186.901 35.4155H6.90137V154C6.90137 160.627 12.274 166 18.9014 166H174.901C181.529 166 186.901 160.627 186.901 154V35.4155Z"
            fill="#0B1120" />
        <path fill-rule="evenodd" clip-rule="evenodd"
            d="M187.651 34.6655H6.15137V154C6.15137 161.042 11.8597 166.75 18.9014 166.75H174.901C181.943 166.75 187.651 161.042 187.651 154V34.6655ZM186.151 36.1655V154C186.151 160.213 181.115 165.25 174.901 165.25H18.9014C12.6882 165.25 7.65137 160.213 7.65137 154V36.1655H186.151Z"
            fill="#52ADF9" />
        <path
            d="M186.901 34C186.901 29.5817 183.32 26 178.901 26H14.9014C10.4831 26 6.90137 29.5817 6.90137 34V35.4155H96.9014H186.901V34Z"
            fill="#184080" />
        <path fill-rule="evenodd" clip-rule="evenodd"
            d="M187.651 34C187.651 29.1675 183.734 25.25 178.901 25.25H14.9014C10.0689 25.25 6.15137 29.1675 6.15137 34V36.1655H187.651V34ZM178.901 26.75C182.905 26.75 186.151 29.9959 186.151 34V34.6655H7.65137V34C7.65137 29.9959 10.8973 26.75 14.9014 26.75H178.901Z"
            fill="#52ADF9" />
        <path fill-rule="evenodd" clip-rule="evenodd"
            d="M19.1514 52C19.1514 51.5858 19.4872 51.25 19.9014 51.25H55.7242C56.1384 51.25 56.4742 51.5858 56.4742 52C56.4742 52.4142 56.1384 52.75 55.7242 52.75H19.9014C19.4872 52.75 19.1514 52.4142 19.1514 52Z"
            fill="#CBD5E1" />
        <path fill-rule="evenodd" clip-rule="evenodd"
            d="M19.1514 70.709C19.1514 70.2948 19.4872 69.959 19.9014 69.959L30.1706 69.959C30.5848 69.959 30.9206 70.2948 30.9206 70.709C30.9206 71.1232 30.5848 71.459 30.1706 71.459L19.9014 71.459C19.4872 71.459 19.1514 71.1232 19.1514 70.709Z"
            fill="#CBD5E1" />
        <path fill-rule="evenodd" clip-rule="evenodd"
            d="M44.7051 61.1587C44.7051 60.7445 45.0409 60.4087 45.4551 60.4087L55.7243 60.4087C56.1385 60.4087 56.4743 60.7445 56.4743 61.1587C56.4743 61.5729 56.1385 61.9087 55.7243 61.9087L45.4551 61.9087C45.0409 61.9087 44.7051 61.5729 44.7051 61.1587Z"
            fill="#CBD5E1" />
        <path fill-rule="evenodd" clip-rule="evenodd"
            d="M19.1514 61.1587C19.1514 60.7445 19.4872 60.4087 19.9014 60.4087H39.4845C39.8987 60.4087 40.2345 60.7445 40.2345 61.1587C40.2345 61.5729 39.8987 61.9087 39.4845 61.9087H19.9014C19.4872 61.9087 19.1514 61.5729 19.1514 61.1587Z"
            fill="#CBD5E1" />
        <path fill-rule="evenodd" clip-rule="evenodd"
            d="M135.874 124.359C135.874 123.945 136.21 123.609 136.624 123.609H172.447C172.861 123.609 173.197 123.945 173.197 124.359C173.197 124.774 172.861 125.109 172.447 125.109H136.624C136.21 125.109 135.874 124.774 135.874 124.359Z"
            fill="#CBD5E1" />
        <path fill-rule="evenodd" clip-rule="evenodd"
            d="M147.643 133.518C147.643 133.932 147.307 134.268 146.893 134.268L136.624 134.268C136.21 134.268 135.874 133.932 135.874 133.518C135.874 133.103 136.21 132.768 136.624 132.768L146.893 132.768C147.307 132.768 147.643 133.103 147.643 133.518Z"
            fill="#CBD5E1" />
        <path fill-rule="evenodd" clip-rule="evenodd"
            d="M173.197 133.518C173.197 133.932 172.861 134.268 172.447 134.268L152.864 134.268C152.449 134.268 152.114 133.932 152.114 133.518C152.114 133.103 152.449 132.768 152.864 132.768L172.447 132.768C172.861 132.768 173.197 133.103 173.197 133.518Z"
            fill="#CBD5E1" />
        <path fill-rule="evenodd" clip-rule="evenodd"
            d="M136.921 92.231C137.336 92.231 137.671 92.5667 137.671 92.981C137.671 113.328 123.028 130.254 103.705 133.797L104.003 137.43L96.1738 133.729L103.294 128.799L103.581 132.294C122.132 128.821 136.171 112.54 136.171 92.981C136.171 92.5667 136.507 92.231 136.921 92.231Z"
            fill="#CBD5E1" />
        <path fill-rule="evenodd" clip-rule="evenodd"
            d="M88.3446 48.5322L96.1739 52.2338L89.0536 57.1634L88.7665 53.6682C70.2156 57.1416 56.1763 73.4227 56.1763 92.9815C56.1763 93.3957 55.8405 93.7315 55.4263 93.7315C55.0121 93.7315 54.6763 93.3957 54.6763 92.9815C54.6763 72.6342 69.3198 55.7084 88.6431 52.1656L88.3446 48.5322Z"
            fill="#CBD5E1" />
        <path
            d="M125.81 90.0674C125.78 89.2989 125.498 88.5617 125.007 87.9697C124.517 87.3777 123.845 86.9639 123.096 86.7923C121.784 86.5075 120.463 86.2939 119.131 86.0905C118.949 86.0759 118.777 86.0055 118.637 85.889C118.496 85.7725 118.396 85.6155 118.348 85.4396C117.952 84.4225 117.515 83.3443 117.057 82.3069C116.983 82.1844 116.95 82.0413 116.962 81.8985C116.975 81.7558 117.033 81.6209 117.128 81.5135C117.921 80.4151 118.734 79.3268 119.477 78.1876C119.903 77.5471 120.105 76.7826 120.05 76.0147C119.995 75.2468 119.686 74.5191 119.172 73.9463C117.962 72.6139 116.661 71.3629 115.39 70.0813C114.762 69.3689 113.885 68.9245 112.94 68.8393C111.994 68.7542 111.052 69.0349 110.307 69.6236C109.311 70.3017 108.325 71.0035 107.349 71.729C107.243 71.8256 107.108 71.8856 106.966 71.9003C106.823 71.9149 106.679 71.8834 106.556 71.8104C105.438 71.312 104.309 70.7933 103.16 70.4169C103.023 70.3779 102.9 70.2975 102.809 70.1865C102.718 70.0756 102.663 69.9395 102.652 69.7965C102.459 68.5862 102.256 67.3758 102.052 66.1654C101.927 65.3141 101.508 64.5336 100.867 63.9594C100.226 63.3853 99.4047 63.0538 98.5452 63.0226C96.6747 62.9717 94.8041 63.0226 92.9438 63.0226C92.1501 63.0372 91.3842 63.3177 90.7686 63.8192C90.1531 64.3208 89.7234 65.0144 89.5484 65.7891C89.2536 67.152 89.0503 68.5251 88.8165 69.8575C88.8025 69.9996 88.7468 70.1344 88.6564 70.2449C88.5659 70.3553 88.4447 70.4364 88.3082 70.478C87.2103 70.9052 86.1327 71.373 85.0551 71.8511C84.941 71.9211 84.8075 71.9529 84.6741 71.9419C84.5407 71.9309 84.4142 71.8777 84.313 71.79C83.2354 70.9865 82.1579 70.1932 81.0396 69.4507C80.3961 69.0121 79.6246 68.8009 78.8475 68.8506C78.0704 68.9004 77.3321 69.2082 76.7497 69.7253C75.3264 71.0272 73.9439 72.3901 72.6833 73.7937C72.0644 74.4207 71.6984 75.254 71.6553 76.1341C71.6121 77.0143 71.8949 77.8794 72.4495 78.5639C73.1713 79.5811 73.9337 80.5981 74.6555 81.6966C74.7014 81.7815 74.7296 81.8749 74.7384 81.9711C74.7471 82.0673 74.7362 82.1642 74.7063 82.256C74.259 83.4257 73.7914 84.5954 73.2933 85.7549C73.249 85.8412 73.1873 85.9174 73.112 85.9787C73.0368 86.04 72.9497 86.085 72.8561 86.1109C71.6464 86.3346 70.4367 86.538 69.2269 86.7313C68.3577 86.8221 67.5494 87.2203 66.9475 87.8543C66.3455 88.4882 65.9895 89.3162 65.9434 90.1894C65.8824 92.1321 65.8926 94.0849 65.9434 96.0378C65.9802 96.7977 66.2628 97.525 66.7487 98.1102C67.2346 98.6954 67.8974 99.1068 68.6373 99.2823C70.0199 99.5976 71.4329 99.8112 72.8358 100.045C72.9695 100.057 73.0965 100.108 73.2 100.194C73.3035 100.279 73.3786 100.394 73.4153 100.523C73.8524 101.642 74.3302 102.73 74.8181 103.829C74.8819 103.938 74.9093 104.065 74.8965 104.191C74.8837 104.317 74.8314 104.436 74.747 104.531C74.015 105.548 73.2729 106.565 72.5715 107.582C72.0199 108.309 71.7581 109.216 71.837 110.126C71.9159 111.035 72.3299 111.883 72.9985 112.505C74.1675 113.695 75.3468 114.885 76.5362 116.044C77.1697 116.753 78.0525 117.189 78.9999 117.261C79.9473 117.333 80.8858 117.035 81.6191 116.431C82.6357 115.719 83.6522 114.997 84.6688 114.264C84.7615 114.187 84.8759 114.141 84.9962 114.131C85.1164 114.122 85.2366 114.151 85.3398 114.213C86.3563 114.661 87.3729 115.098 88.4607 115.495C88.6223 115.54 88.7654 115.635 88.8695 115.767C88.9736 115.898 89.0334 116.06 89.0401 116.227C89.2231 117.427 89.4264 118.617 89.6297 119.807C89.7405 120.638 90.1351 121.405 90.7465 121.978C91.358 122.551 92.1487 122.894 92.9845 122.95C94.9465 123.022 96.9085 123.011 98.8705 122.95C99.6399 122.913 100.376 122.625 100.965 122.128C101.555 121.632 101.965 120.956 102.134 120.204C102.418 118.882 102.622 117.539 102.845 116.197C102.854 116.039 102.911 115.887 103.01 115.763C103.108 115.639 103.242 115.549 103.394 115.505C104.502 115.078 105.58 114.63 106.657 114.152C106.769 114.091 106.897 114.065 107.024 114.077C107.151 114.09 107.272 114.141 107.369 114.224C108.386 114.956 109.402 115.668 110.419 116.4C111.13 116.915 111.992 117.176 112.869 117.143C113.682 117.134 114.461 116.814 115.044 116.248C116.325 115.037 117.565 113.776 118.816 112.535C119.546 111.903 120.002 111.012 120.087 110.049C120.173 109.087 119.881 108.129 119.273 107.378C118.596 106.382 117.894 105.395 117.169 104.419C117.086 104.321 117.035 104.201 117.023 104.074C117.01 103.947 117.036 103.819 117.098 103.707C117.576 102.618 118.033 101.52 118.47 100.401C118.51 100.263 118.593 100.14 118.706 100.051C118.819 99.9616 118.957 99.9098 119.1 99.9028C120.31 99.7197 121.52 99.5163 122.73 99.3129C123.583 99.1988 124.368 98.7875 124.948 98.1513C125.529 97.5151 125.866 96.6948 125.901 95.8344C125.861 93.9019 125.861 91.9795 125.81 90.0674ZM95.8512 105.904C93.2933 105.9 90.794 105.137 88.6696 103.711C86.5451 102.286 84.8909 100.262 83.9162 97.896C82.9415 95.5298 82.6901 92.9276 83.1939 90.4184C83.6976 87.9093 84.9338 85.606 86.746 83.7999C88.5583 81.9939 90.8653 80.7661 93.3751 80.272C95.8849 79.7779 98.4848 80.0396 100.846 81.0241C103.207 82.0086 105.223 83.6716 106.639 85.8027C108.056 87.9339 108.809 90.4374 108.802 92.9966C108.792 96.4253 107.422 99.7097 104.994 102.129C102.566 104.549 99.2781 105.906 95.8512 105.904Z"
            fill="#365314" />
        <path fill-rule="evenodd" clip-rule="evenodd"
            d="M94.7793 62.2614C96.0324 62.2501 97.3047 62.2385 98.5656 62.2728L98.5724 62.273C99.6072 62.3106 100.596 62.7097 101.367 63.4008C102.137 64.0902 102.641 65.0266 102.793 66.0482C102.996 67.2557 103.199 68.4667 103.393 69.6783C103.394 69.6872 103.395 69.6961 103.397 69.705C104.475 70.0586 105.534 70.532 106.542 70.9827C106.649 71.0305 106.755 71.0781 106.861 71.1253C106.87 71.1292 106.879 71.1333 106.887 71.1376C106.892 71.134 106.897 71.1305 106.901 71.1271C107.879 70.4005 108.866 69.6974 109.864 69.0179C110.756 68.3219 111.879 67.9908 113.007 68.0923C114.136 68.194 115.184 68.7218 115.937 69.5681C116.257 69.8901 116.581 70.2129 116.907 70.5374C117.855 71.4823 118.819 72.4421 119.727 73.4421L119.73 73.4453C120.355 74.142 120.731 75.027 120.798 75.9609C120.865 76.8933 120.621 77.8216 120.103 78.5999C119.501 79.5233 118.852 80.4167 118.217 81.2904C118.055 81.5123 117.895 81.7329 117.736 81.9525C117.733 81.9573 117.729 81.9622 117.726 81.9669C117.732 81.9792 117.738 81.9916 117.743 82.0042C118.207 83.055 118.648 84.144 119.047 85.1671C119.057 85.1922 119.065 85.2178 119.072 85.2437C119.079 85.2706 119.095 85.2945 119.116 85.3123C119.137 85.33 119.164 85.3407 119.191 85.3429C119.209 85.3443 119.227 85.3464 119.244 85.349C120.578 85.5528 121.919 85.7693 123.255 86.0593L123.263 86.0611C124.173 86.2695 124.989 86.7721 125.585 87.491C126.181 88.2099 126.523 89.1052 126.559 90.0383L126.56 90.0474C126.588 91.1089 126.601 92.1939 126.613 93.2756C126.624 94.1297 126.634 94.9818 126.651 95.8185C126.652 95.8341 126.651 95.8496 126.651 95.8652C126.608 96.9017 126.202 97.8901 125.503 98.6566C124.807 99.4198 123.865 99.9144 122.842 100.054C121.637 100.257 120.426 100.461 119.213 100.644C119.201 100.646 119.19 100.647 119.178 100.649C119.175 100.657 119.172 100.666 119.169 100.674C118.729 101.799 118.269 102.903 117.79 103.997C118.508 104.965 119.204 105.944 119.877 106.932C120.593 107.83 120.936 108.97 120.834 110.116C120.732 111.263 120.192 112.326 119.327 113.085C119.024 113.386 118.72 113.689 118.414 113.994C117.477 114.929 116.53 115.875 115.563 116.79C114.844 117.485 113.887 117.88 112.887 117.892C111.846 117.93 110.823 117.619 109.979 117.008L110.419 116.4L109.98 117.009C109.98 117.008 109.98 117.008 109.979 117.008C109.474 116.644 108.968 116.284 108.46 115.923C107.957 115.567 107.452 115.208 106.947 114.844C106.952 114.842 106.957 114.84 106.962 114.838C106.981 114.829 107.001 114.82 107.02 114.809C107 114.82 106.978 114.825 106.955 114.824C106.953 114.824 106.952 114.824 106.95 114.823C106.946 114.823 106.942 114.822 106.938 114.822C106.918 114.818 106.9 114.809 106.884 114.796C106.899 114.808 106.915 114.821 106.931 114.832C106.936 114.836 106.942 114.84 106.947 114.844C105.864 115.325 104.779 115.775 103.664 116.205C103.644 116.213 103.624 116.219 103.603 116.225C103.601 116.226 103.599 116.228 103.597 116.23C103.596 116.231 103.595 116.232 103.595 116.233C103.595 116.234 103.594 116.236 103.594 116.237C103.593 116.265 103.59 116.292 103.585 116.32C103.543 116.575 103.501 116.832 103.458 117.09C103.281 118.173 103.101 119.276 102.867 120.362L102.866 120.368C102.661 121.28 102.164 122.1 101.448 122.702C100.733 123.304 99.8402 123.654 98.9066 123.699L98.8938 123.7C96.9191 123.761 94.9398 123.772 92.9573 123.7C92.9496 123.7 92.9419 123.699 92.9343 123.699C91.9257 123.631 90.9715 123.216 90.2337 122.525C89.4995 121.837 89.0245 120.918 88.8882 119.921C88.8888 119.924 88.8893 119.927 88.8899 119.93L88.8905 119.934L89.6297 119.807L88.8863 119.907C88.887 119.911 88.8876 119.916 88.8882 119.921C88.6858 118.736 88.4822 117.544 88.2987 116.34C88.2945 116.313 88.2918 116.285 88.2907 116.257C88.2904 116.248 88.2871 116.239 88.2814 116.232C88.2757 116.225 88.2679 116.22 88.2593 116.217C88.2405 116.212 88.222 116.206 88.2037 116.2C87.099 115.797 86.0701 115.354 85.0575 114.909C85.0741 114.897 85.0906 114.885 85.1072 114.873C85.1216 114.862 85.1357 114.851 85.1493 114.84C85.1355 114.852 85.12 114.861 85.1034 114.867C85.0873 114.874 85.0703 114.878 85.0528 114.879C85.0507 114.879 85.0486 114.879 85.0465 114.88C85.0131 114.881 84.9801 114.872 84.9515 114.855C84.9792 114.872 85.008 114.887 85.0376 114.9C85.0442 114.903 85.0509 114.906 85.0575 114.909C84.0625 115.625 83.0674 116.332 82.0723 117.029C82.0803 117.022 82.0883 117.016 82.0962 117.009L81.6191 116.431L82.0493 117.045C82.057 117.04 82.0647 117.034 82.0723 117.029C81.1932 117.743 80.0734 118.094 78.943 118.008C77.8114 117.922 76.7563 117.405 75.9951 116.564C76.0009 116.57 76.0068 116.575 76.0126 116.581L76.5362 116.044L75.9771 116.544C75.9831 116.551 75.989 116.557 75.9951 116.564C74.8097 115.408 73.6356 114.223 72.4748 113.042C72.4792 113.046 72.4835 113.05 72.4878 113.054L72.9985 112.505L72.4634 113.03C72.4672 113.034 72.471 113.038 72.4748 113.042C71.6776 112.295 71.1843 111.279 71.0898 110.19C70.9954 109.101 71.3066 108.016 71.9633 107.143C71.9602 107.147 71.9572 107.152 71.9541 107.156L72.5715 107.582L71.9739 107.129C71.9703 107.133 71.9668 107.138 71.9633 107.143C72.5267 106.326 73.1166 105.509 73.7011 104.699C73.8424 104.503 73.9834 104.308 74.1236 104.113C74.1267 104.12 74.1297 104.126 74.1327 104.133C74.1438 104.158 74.1562 104.182 74.1699 104.206C74.1557 104.182 74.1487 104.154 74.1497 104.126C74.1498 104.122 74.15 104.119 74.1503 104.116C74.1508 104.111 74.1514 104.107 74.1522 104.103C74.1573 104.076 74.1695 104.051 74.1877 104.031C74.1701 104.051 74.1536 104.071 74.1382 104.092C74.1334 104.099 74.1285 104.106 74.1236 104.113C73.6386 103.021 73.1579 101.925 72.7167 100.796C72.7152 100.792 72.7138 100.789 72.7124 100.785C72.7203 100.786 72.7283 100.787 72.7362 100.788C72.7481 100.79 72.7601 100.791 72.772 100.792C72.7623 100.792 72.7529 100.789 72.7441 100.785C72.7364 100.782 72.7292 100.778 72.7227 100.772C72.7202 100.77 72.7179 100.768 72.7156 100.766C72.7054 100.755 72.6978 100.742 72.6938 100.728C72.6992 100.747 72.7055 100.766 72.7124 100.785C72.4768 100.746 72.2395 100.707 72.0009 100.668C70.8357 100.476 69.6414 100.281 68.4706 100.014L68.4642 100.012C67.566 99.799 66.7614 99.2996 66.1717 98.5893C65.5819 97.879 65.2389 96.9962 65.1943 96.074L65.1936 96.0572C65.1425 94.0943 65.1322 92.1266 65.1938 90.1658L65.1944 90.1498C65.25 89.0984 65.6787 88.1012 66.4036 87.3378C67.1236 86.5795 68.0889 86.1012 69.1278 85.9876C69.1214 85.9886 69.115 85.9896 69.1086 85.9906L69.2269 86.7312L69.149 85.9853C69.1419 85.986 69.1349 85.9868 69.1278 85.9876C70.2986 85.8004 71.467 85.6041 72.634 85.3891C72.6241 85.4123 72.6141 85.4356 72.6042 85.4588L72.6854 85.4937L72.8561 86.1108L72.7469 85.5201L73.2933 85.7548L72.7376 85.4698L72.7197 85.3733C72.6912 85.3786 72.6626 85.3839 72.634 85.3891C73.1085 84.2817 73.5557 83.1633 73.9851 82.0422C73.9996 82.0642 74.0142 82.0863 74.0287 82.1084L74.103 82.0596L74.7063 82.256L74.136 82.0379L74.6555 81.6966L74.0708 82.0129L74.0058 81.9881C73.9989 82.0061 73.992 82.0242 73.9851 82.0422C73.4961 81.3019 72.9935 80.6051 72.4885 79.9049C72.2762 79.6105 72.0634 79.3156 71.8511 79.0166C71.8563 79.0231 71.8615 79.0295 71.8668 79.036L72.4495 78.5639L71.8379 78.9979C71.8423 79.0041 71.8467 79.0104 71.8511 79.0166C71.1906 78.1917 70.8544 77.1534 70.9062 76.0974C70.958 75.0391 71.3959 74.0368 72.1366 73.2799C72.1329 73.2841 72.1291 73.2883 72.1253 73.2925L72.6833 73.7937L72.1496 73.2668C72.1452 73.2712 72.1409 73.2756 72.1366 73.2799C73.4144 71.8582 74.8112 70.482 76.2434 69.1719L76.2517 69.1643C76.959 68.5363 77.8557 68.1625 78.7996 68.1021C79.7419 68.0418 80.6773 68.2973 81.4581 68.8282C81.4569 68.8274 81.4557 68.8266 81.4545 68.8258L81.0396 69.4506L81.462 68.8309C81.4607 68.83 81.4594 68.8291 81.4581 68.8282C82.5853 69.5768 83.6684 70.3739 84.738 71.1713C84.7123 71.1833 84.6872 71.1968 84.663 71.2117C84.6847 71.1984 84.7101 71.1923 84.7356 71.1944C84.7421 71.1949 84.7485 71.196 84.7548 71.1975C84.7589 71.1986 84.7629 71.1998 84.7669 71.2012C84.7805 71.2062 84.7932 71.2137 84.8043 71.2233C84.7904 71.2112 84.7761 71.1997 84.7614 71.1887C84.7614 71.1887 84.7613 71.1887 84.7614 71.1887C84.7536 71.1829 84.7458 71.1771 84.738 71.1713C84.7423 71.1693 84.7467 71.1674 84.751 71.1654C85.831 70.6863 86.9215 70.2127 88.0362 69.779C88.0481 69.7743 88.06 69.77 88.0721 69.766C88.0713 69.7721 88.0706 69.7782 88.07 69.7843C88.0706 69.7789 88.0727 69.7738 88.0762 69.7695C88.0797 69.7652 88.0844 69.762 88.0898 69.7604C88.0839 69.7622 88.078 69.7641 88.0721 69.766C88.0736 69.7533 88.0755 69.7405 88.0778 69.7278C88.1425 69.3591 88.2056 68.9821 88.2696 68.5998C88.4324 67.6282 88.6009 66.6222 88.8154 65.6305L88.8168 65.6238C89.0288 64.6855 89.5492 63.8453 90.2949 63.2378C91.0406 62.6302 91.9684 62.2903 92.93 62.2727L92.9438 62.2724C93.5485 62.2724 94.1616 62.267 94.7793 62.2614ZM74.029 82.0355L73.9931 82.0238C73.9916 82.0287 73.991 82.0338 73.9915 82.0389C73.9919 82.0439 73.9934 82.0489 73.9959 82.0534L74.029 82.0355ZM72.6691 85.4346L72.6562 85.3879C72.6496 85.3898 72.6436 85.3929 72.6384 85.3971C72.6332 85.4014 72.629 85.4066 72.6259 85.4125L72.6691 85.4346ZM92.9511 63.7725C92.3276 63.7854 91.7261 64.0065 91.2424 64.4006C90.7578 64.7955 90.4192 65.3413 90.2807 65.9511C90.0745 66.9049 89.9154 67.855 89.7551 68.8119C89.6911 69.1946 89.6268 69.5783 89.5593 69.9639C89.5257 70.2412 89.4139 70.5036 89.2365 70.7201C89.0592 70.9366 88.8239 71.0979 88.5585 71.1853C87.4971 71.5989 86.4514 72.0523 85.3959 72.5203C85.1577 72.6527 84.8851 72.7117 84.6126 72.6893C84.3313 72.6662 84.0641 72.5573 83.8469 72.378C82.7762 71.5797 81.7185 70.8016 80.6248 70.0754L80.6172 70.0704C80.1117 69.7259 79.5057 69.56 78.8954 69.599C78.2868 69.638 77.7084 69.8785 77.2515 70.2826C75.8431 71.5712 74.4803 72.9152 73.2413 74.2948C73.2335 74.3036 73.2254 74.3122 73.2171 74.3205C72.7279 74.8161 72.4385 75.4749 72.4044 76.1708C72.3702 76.8667 72.5938 77.5506 73.0323 78.0918C73.0423 78.1041 73.0519 78.1168 73.0611 78.1298C73.2639 78.4156 73.4729 78.7054 73.6852 78.9997C74.2129 79.7314 74.7607 80.4909 75.2823 81.2847C75.294 81.3025 75.305 81.3209 75.3151 81.3397C75.4095 81.5141 75.4674 81.7058 75.4853 81.9032C75.5032 82.1006 75.4808 82.2996 75.4195 82.4881C75.4156 82.5001 75.4114 82.512 75.4068 82.5239C74.9569 83.7004 74.4854 84.8798 73.9824 86.0508C73.9756 86.0665 73.9684 86.0819 73.9606 86.0971C73.869 86.2757 73.7413 86.4334 73.5856 86.5602C73.43 86.687 73.2497 86.7801 73.0561 86.8336C73.0351 86.8394 73.0139 86.8443 72.9926 86.8483C71.775 87.0735 70.5589 87.278 69.3453 87.4718C69.3318 87.474 69.3184 87.4758 69.3049 87.4772C68.6134 87.5494 67.9703 87.8662 67.4914 88.3706C67.0141 88.8732 66.7311 89.5292 66.6928 90.2214C66.6327 92.1403 66.6426 94.0724 66.6929 96.0093C66.7234 96.6041 66.9454 97.173 67.3257 97.6311C67.7071 98.0904 68.227 98.4134 68.8073 98.5518C69.9278 98.8072 71.0667 98.9941 72.23 99.185C72.464 99.2234 72.699 99.262 72.9351 99.3013C73.2075 99.3315 73.4655 99.4405 73.6773 99.6152C73.8872 99.7884 74.0424 100.018 74.1244 100.277C74.548 101.359 75.0112 102.416 75.4903 103.494C75.6165 103.731 75.6698 104 75.6427 104.267C75.6155 104.535 75.509 104.788 75.3373 104.994C75.1957 105.191 75.0542 105.387 74.913 105.583C74.3263 106.396 73.7451 107.201 73.1889 108.008C73.1825 108.017 73.1759 108.026 73.1691 108.035C72.7299 108.614 72.5214 109.336 72.5842 110.061C72.6471 110.785 72.9767 111.46 73.5091 111.955C73.5174 111.963 73.5255 111.971 73.5335 111.979C74.7014 113.168 75.8762 114.353 77.0597 115.507C77.072 115.519 77.0838 115.531 77.0952 115.544C77.5997 116.108 78.3026 116.455 79.0568 116.513C79.811 116.57 80.5582 116.333 81.142 115.852C81.1571 115.839 81.1727 115.828 81.1888 115.816C82.1969 115.11 83.2051 114.394 84.2133 113.668C84.4213 113.503 84.6742 113.404 84.9395 113.384C85.196 113.364 85.4522 113.42 85.6773 113.542C86.6721 113.98 87.6522 114.401 88.6949 114.782C88.9959 114.873 89.2622 115.054 89.4577 115.301C89.6502 115.545 89.7646 115.84 89.7868 116.149C89.9672 117.329 90.1675 118.501 90.369 119.681C90.3706 119.69 90.372 119.699 90.3732 119.708C90.4611 120.368 90.7742 120.976 91.2593 121.43C91.7418 121.882 92.3648 122.155 93.0238 122.201C94.959 122.271 96.8975 122.261 98.8405 122.201C99.4435 122.17 100.02 121.944 100.483 121.554C100.946 121.165 101.268 120.634 101.401 120.043C101.626 118.998 101.799 117.943 101.975 116.863C102.016 116.613 102.058 116.361 102.1 116.108C102.125 115.812 102.237 115.53 102.422 115.297C102.609 115.061 102.863 114.887 103.149 114.796C104.229 114.379 105.279 113.943 106.33 113.477C106.566 113.355 106.833 113.304 107.099 113.331C107.366 113.358 107.618 113.461 107.827 113.629C108.326 113.989 108.826 114.344 109.328 114.7L109.33 114.702C109.837 115.062 110.347 115.424 110.857 115.792L110.859 115.793C111.434 116.209 112.131 116.42 112.84 116.393L112.861 116.393C113.482 116.386 114.076 116.142 114.522 115.709L114.529 115.702C115.482 114.802 116.409 113.877 117.343 112.944C117.657 112.631 117.971 112.317 118.287 112.003C118.3 111.991 118.312 111.979 118.325 111.968C118.908 111.463 119.272 110.752 119.34 109.983C119.408 109.215 119.175 108.45 118.69 107.85C118.677 107.834 118.665 107.817 118.653 107.8C117.985 106.817 117.293 105.844 116.578 104.881C116.408 104.672 116.303 104.417 116.276 104.148C116.25 103.883 116.301 103.617 116.422 103.38C116.888 102.317 117.335 101.245 117.761 100.154C117.849 99.8813 118.015 99.6405 118.24 99.4626C118.464 99.2856 118.735 99.1793 119.019 99.1565C120.211 98.9757 121.405 98.775 122.605 98.5732C122.61 98.5724 122.614 98.5717 122.618 98.5711C122.622 98.5705 122.626 98.5699 122.63 98.5694C123.308 98.4787 123.933 98.1518 124.394 97.6459C124.851 97.1455 125.118 96.5016 125.151 95.8254C125.133 94.9579 125.123 94.1096 125.113 93.2671C125.101 92.2081 125.089 91.1585 125.06 90.0921C125.036 89.4898 124.815 88.9122 124.43 88.4482C124.045 87.9841 123.519 87.6595 122.932 87.5242C121.653 87.2467 120.36 87.0371 119.04 86.8353C118.716 86.803 118.408 86.6743 118.157 86.4656C117.91 86.2602 117.729 85.9869 117.637 85.6801C117.251 84.6904 116.828 83.648 116.387 82.6457C116.25 82.3978 116.19 82.1143 116.215 81.8314C116.241 81.5439 116.354 81.2714 116.538 81.0499C116.697 80.8294 116.856 80.6107 117.014 80.3931C117.648 79.5218 118.269 78.6672 118.848 77.7782L118.852 77.7716C119.187 77.2696 119.345 76.6704 119.302 76.0684C119.259 75.4672 119.017 74.8975 118.615 74.4488C117.735 73.4798 116.811 72.5593 115.871 71.6228C115.535 71.288 115.196 70.9512 114.857 70.6093C114.847 70.5989 114.837 70.5882 114.827 70.5772C114.326 70.0088 113.627 69.6542 112.872 69.5862C112.118 69.5183 111.366 69.7422 110.772 70.212C110.758 70.223 110.744 70.2335 110.729 70.2436C109.75 70.9101 108.78 71.5998 107.821 72.3128C107.601 72.5002 107.33 72.6168 107.042 72.6463C106.757 72.6756 106.47 72.6177 106.218 72.481C106.124 72.439 106.03 72.3969 105.936 72.355C104.919 71.9006 103.936 71.461 102.939 71.1334C102.66 71.0508 102.413 70.8866 102.229 70.6618C102.048 70.4415 101.937 70.1731 101.908 69.8904C101.716 68.6916 101.515 67.4924 101.313 66.2896L101.31 66.2746C101.211 65.5966 100.876 64.9751 100.366 64.5179C99.857 64.0615 99.2043 63.7977 98.5212 63.7722C97.2877 63.7387 96.0653 63.7499 94.8304 63.7611C94.2082 63.7668 93.5828 63.7725 92.9511 63.7725ZM100.557 81.7163C98.3331 80.7889 95.8841 80.5424 93.5199 81.0078C91.1558 81.4732 88.9826 82.6298 87.2755 84.3311C85.5683 86.0325 84.4037 88.2023 83.9292 90.566C83.4547 92.9297 83.6915 95.3812 84.6097 97.6102C85.5279 99.8393 87.0862 101.746 89.0874 103.088C91.0887 104.431 93.4429 105.15 95.8524 105.154C99.0804 105.156 102.178 103.877 104.465 101.598C106.752 99.3186 108.042 96.2244 108.052 92.9942C108.058 90.5835 107.349 88.2252 106.015 86.2178C104.681 84.2102 102.781 82.6437 100.557 81.7163ZM95.8506 106.654C99.4763 106.656 102.955 105.22 105.524 102.661C108.092 100.101 109.541 96.6261 109.552 92.9989C109.559 90.2914 108.762 87.6422 107.264 85.3876C105.766 83.1329 103.633 81.3734 101.134 80.3318C98.6364 79.2902 95.8856 79.0133 93.2302 79.5361C90.5748 80.0588 88.134 81.3578 86.2166 83.2687C84.2992 85.1795 82.9914 87.6163 82.4585 90.2708C81.9256 92.9253 82.1916 95.6783 83.2228 98.1816C84.2539 100.685 86.004 102.826 88.2517 104.334C90.4994 105.842 93.1443 106.649 95.8506 106.654Z"
            fill="#A3E635" />
        <path
            d="M191.901 56C191.901 51.5817 188.32 48 183.901 48H159.901C155.483 48 151.901 51.5817 151.901 56V59.0999C151.901 63.5182 155.483 67.0999 159.901 67.0999H183.901C188.32 67.0999 191.901 63.5182 191.901 59.0999V56Z"
            fill="#184080" />
        <path fill-rule="evenodd" clip-rule="evenodd"
            d="M159.901 49.5H183.901C187.491 49.5 190.401 52.4101 190.401 56V59.0999C190.401 62.6898 187.491 65.5999 183.901 65.5999H159.901C156.312 65.5999 153.401 62.6898 153.401 59.0999V56C153.401 52.4102 156.312 49.5 159.901 49.5ZM183.901 48C188.32 48 191.901 51.5817 191.901 56V59.0999C191.901 63.5182 188.32 67.0999 183.901 67.0999H159.901C155.483 67.0999 151.901 63.5182 151.901 59.0999V56C151.901 51.5817 155.483 48 159.901 48H183.901Z"
            fill="#52ADF9" />
        <path
            d="M191.901 56.4209H151.901V79.9998C151.901 84.4181 155.483 87.9998 159.901 87.9998H183.901C188.32 87.9998 191.901 84.4181 191.901 79.9998V56.4209Z"
            fill="#1E293B" />
        <path fill-rule="evenodd" clip-rule="evenodd"
            d="M153.401 57.9209H190.401V79.9998C190.401 83.5897 187.491 86.4998 183.901 86.4998H159.901C156.312 86.4998 153.401 83.5897 153.401 79.9998V57.9209ZM191.901 56.4209V79.9998C191.901 84.4181 188.32 87.9998 183.901 87.9998H159.901C155.483 87.9998 151.901 84.4181 151.901 79.9998V56.4209H191.901Z"
            fill="#52ADF9" />
        <path fill-rule="evenodd" clip-rule="evenodd"
            d="M167.059 64.056C168.953 63.0477 171.139 62.7248 173.244 63.142C175.35 63.5592 177.246 64.691 178.609 66.3451C179.971 67.9994 180.717 70.0736 180.717 72.2144C180.717 72.6286 180.381 72.9644 179.967 72.9644C179.552 72.9644 179.217 72.6286 179.217 72.2144C179.217 70.4221 178.593 68.685 177.451 67.2989C176.309 65.9128 174.719 64.9634 172.953 64.6134C171.186 64.2633 169.352 64.5344 167.764 65.38C166.176 66.2257 164.932 67.5934 164.243 69.2495C163.555 70.9056 163.464 72.7481 163.986 74.4633C164.509 76.1786 165.612 77.661 167.109 78.6575C168.606 79.6541 170.404 80.1029 172.197 79.927C173.99 79.7511 175.665 78.9615 176.938 77.6934C177.232 77.4011 177.706 77.402 177.999 77.6955C178.291 77.9889 178.29 78.4638 177.997 78.7561C176.478 80.2691 174.48 81.2102 172.344 81.4199C170.207 81.6295 168.063 81.0947 166.278 79.9062C164.492 78.7177 163.175 76.9487 162.551 74.9003C161.928 72.8518 162.036 70.6512 162.858 68.6736C163.681 66.6961 165.165 65.0644 167.059 64.056Z"
            fill="#52ADF9" />
        <path d="M179.966 75.02L176.559 70.8093L183.374 70.8093L179.966 75.02Z" fill="#52ADF9" />
        <path fill-rule="evenodd" clip-rule="evenodd"
            d="M171.669 67.814C172.084 67.814 172.419 68.1498 172.419 68.564V71.9621L174.735 74.2685C175.028 74.5608 175.029 75.0357 174.737 75.3291C174.444 75.6226 173.97 75.6235 173.676 75.3311L170.919 72.5851V68.564C170.919 68.1498 171.255 67.814 171.669 67.814Z"
            fill="#52ADF9" />
        <path
            d="M40.9014 104C40.9014 99.5817 37.3196 96 32.9014 96H8.90137C4.48309 96 0.901367 99.5817 0.901367 104V128C0.901367 132.418 4.48309 136 8.90137 136H32.9014C37.3196 136 40.9014 132.418 40.9014 128V104Z"
            fill="#1E293B" />
        <path fill-rule="evenodd" clip-rule="evenodd"
            d="M8.90137 97.5H32.9014C36.4912 97.5 39.4014 100.41 39.4014 104V128C39.4014 131.59 36.4912 134.5 32.9014 134.5H8.90137C5.31152 134.5 2.40137 131.59 2.40137 128V104C2.40137 100.41 5.31152 97.5 8.90137 97.5ZM32.9014 96C37.3196 96 40.9014 99.5817 40.9014 104V128C40.9014 132.418 37.3196 136 32.9014 136H8.90137C4.48309 136 0.901367 132.418 0.901367 128V104C0.901367 99.5817 4.48309 96 8.90137 96H32.9014Z"
            fill="#52ADF9" />
        <path
            d="M25.0664 107.872H20.3268L14.2583 118.32H20.3268L18.5313 125.609L27.5441 114.047H21.5834L25.0664 107.872Z"
            fill="#52ADF9" />
        <path fill-rule="evenodd" clip-rule="evenodd"
            d="M132.151 156.75L132.151 147.25L154.901 147.25C157.525 147.25 159.651 149.377 159.651 152C159.651 154.623 157.525 156.75 154.901 156.75L132.151 156.75ZM133.651 155.25L154.901 155.25C156.696 155.25 158.151 153.795 158.151 152C158.151 150.205 156.696 148.75 154.901 148.75L133.651 148.75L133.651 155.25Z"
            fill="#52ADF9" />
        <path
            d="M132.901 148L132.901 155.994L38.8983 155.994C36.6909 155.994 34.9014 154.204 34.9014 151.997C34.9014 149.79 36.6909 148 38.8984 148L132.901 148Z"
            fill="#196FDE" />
        <path fill-rule="evenodd" clip-rule="evenodd"
            d="M133.651 147.25L133.651 156.744L38.8983 156.744C36.2767 156.744 34.1514 154.619 34.1514 151.997C34.1514 149.375 36.2767 147.25 38.8984 147.25L133.651 147.25ZM132.151 148.75L38.8984 148.75C37.1051 148.75 35.6514 150.204 35.6514 151.997C35.6514 153.79 37.1051 155.244 38.8983 155.244L132.151 155.244L132.151 148.75Z"
            fill="#52ADF9" />
    </g>
    <defs>
        <clipPath id="clip0_135_7561">
            <rect width="192" height="192" fill="white" transform="translate(0.401367)" />
        </clipPath>
    </defs>
</svg>
