<svg width="193" height="192" viewBox="0 0 193 192" fill="none" xmlns="http://www.w3.org/2000/svg">
    <path fill-rule="evenodd" clip-rule="evenodd"
        d="M139.401 23.5H52.4014C48.8115 23.5 45.9014 26.4102 45.9014 30V82H44.4014V30C44.4014 25.5817 47.9831 22 52.4014 22H139.401C143.82 22 147.401 25.5817 147.401 30V82H145.901V30C145.901 26.4101 142.991 23.5 139.401 23.5ZM45.9014 101V152C45.9014 155.59 48.8115 158.5 52.4014 158.5H139.401C142.991 158.5 145.901 155.59 145.901 152V101H147.401V152C147.401 156.418 143.82 160 139.401 160H52.4014C47.9831 160 44.4014 156.418 44.4014 152V101H45.9014Z"
        fill="#196FDE" />
    <path fill-rule="evenodd" clip-rule="evenodd"
        d="M153.401 24C153.401 17.3726 148.029 12 141.401 12H50.4014C43.774 12 38.4014 17.3726 38.4014 24V82H44.4014V30C44.4014 25.5817 47.9831 22 52.4014 22H139.401C143.82 22 147.401 25.5817 147.401 30V82H153.401V24ZM153.401 101H147.401V152C147.401 156.418 143.82 160 139.401 160H52.4014C47.9831 160 44.4014 156.418 44.4014 152V101H38.4014V158C38.4014 164.627 43.774 170 50.4014 170H141.401C148.029 170 153.401 164.627 153.401 158V101Z"
        fill="#1E293B" />
    <path fill-rule="evenodd" clip-rule="evenodd"
        d="M141.401 13.5H50.4014C44.6024 13.5 39.9014 18.201 39.9014 24V82H38.4014V24C38.4014 17.3726 43.7739 12 50.4014 12H141.401C148.029 12 153.401 17.3726 153.401 24V82H151.901V24C151.901 18.201 147.2 13.5 141.401 13.5ZM39.9014 101V158C39.9014 163.799 44.6024 168.5 50.4014 168.5H141.401C147.2 168.5 151.901 163.799 151.901 158V101H153.401V158C153.401 164.627 148.029 170 141.401 170H50.4014C43.7739 170 38.4014 164.627 38.4014 158V101H39.9014Z"
        fill="#196FDE" />
    <path fill-rule="evenodd" clip-rule="evenodd"
        d="M95.9014 33.2561C95.0729 33.2561 94.4014 32.5845 94.4014 31.7561C94.4014 30.9277 95.0729 30.2561 95.9014 30.2561C96.7298 30.2561 97.4014 30.9277 97.4014 31.7561C97.4014 32.5845 96.7298 33.2561 95.9014 33.2561ZM95.9014 34.7561C94.2445 34.7561 92.9014 33.413 92.9014 31.7561C92.9014 30.0992 94.2445 28.7561 95.9014 28.7561C97.5582 28.7561 98.9014 30.0992 98.9014 31.7561C98.9014 33.413 97.5582 34.7561 95.9014 34.7561Z"
        fill="#196FDE" />
    <path
        d="M53.4014 161C53.4014 154.373 58.774 149 65.4014 149H127.401C134.029 149 139.401 154.373 139.401 161V167C139.401 173.627 134.029 179 127.401 179H65.4014C58.774 179 53.4014 173.627 53.4014 167V161Z"
        fill="#365314" />
    <path fill-rule="evenodd" clip-rule="evenodd"
        d="M127.401 150.5H65.4014C59.6024 150.5 54.9014 155.201 54.9014 161V167C54.9014 172.799 59.6024 177.5 65.4014 177.5H127.401C133.2 177.5 137.901 172.799 137.901 167V161C137.901 155.201 133.2 150.5 127.401 150.5ZM65.4014 149C58.774 149 53.4014 154.373 53.4014 161V167C53.4014 173.627 58.774 179 65.4014 179H127.401C134.029 179 139.401 173.627 139.401 167V161C139.401 154.373 134.029 149 127.401 149H65.4014Z"
        fill="#A3E635" />
    <path
        d="M82.0883 159.827C82.0883 159.412 81.7525 159.077 81.3383 159.077C80.9241 159.077 80.5883 159.412 80.5883 159.827V162.494L78.7753 160.613C78.4879 160.315 78.0218 160.315 77.7344 160.613C77.4469 160.911 77.4469 161.395 77.7344 161.693L79.5701 163.597H76.9785C76.5643 163.597 76.2285 163.933 76.2285 164.347C76.2285 164.762 76.5643 165.097 76.9785 165.097H79.5759L77.7343 167.008C77.4469 167.306 77.4469 167.79 77.7343 168.088C78.0218 168.386 78.4878 168.386 78.7753 168.088L80.5883 166.207V168.872C80.5883 169.286 80.9241 169.622 81.3383 169.622C81.7525 169.622 82.0883 169.286 82.0883 168.872V166.21L83.8994 168.089C84.1869 168.387 84.6529 168.387 84.9404 168.089C85.2278 167.791 85.2278 167.307 84.9404 167.009L83.0979 165.097H85.6972C86.1114 165.097 86.4472 164.762 86.4472 164.347C86.4472 163.933 86.1114 163.597 85.6972 163.597H83.1036L84.9404 161.692C85.2278 161.394 85.2278 160.91 84.9404 160.612C84.6529 160.314 84.1868 160.314 83.8994 160.612L82.0883 162.491V159.827Z"
        fill="#A3E635" />
    <path
        d="M96.4013 159.077C96.8155 159.077 97.1513 159.412 97.1513 159.827V162.492L98.9633 160.612C99.2508 160.314 99.7169 160.314 100.004 160.612C100.292 160.91 100.292 161.394 100.004 161.692L98.1676 163.597H100.76C101.174 163.597 101.51 163.933 101.51 164.347C101.51 164.762 101.174 165.097 100.76 165.097H98.1618L100.004 167.009C100.292 167.307 100.292 167.791 100.004 168.089C99.7169 168.387 99.2508 168.387 98.9634 168.089L97.1513 166.209V168.872C97.1513 169.286 96.8155 169.622 96.4013 169.622C95.9871 169.622 95.6513 169.286 95.6513 168.872V166.208L93.8393 168.088C93.5518 168.386 93.0858 168.386 92.7983 168.088C92.5108 167.79 92.5108 167.306 92.7983 167.008L94.6398 165.097H92.0415C91.6273 165.097 91.2915 164.762 91.2915 164.347C91.2915 163.933 91.6273 163.597 92.0415 163.597H94.6341L92.7983 161.693C92.5109 161.395 92.5109 160.911 92.7983 160.613C93.0858 160.315 93.5519 160.315 93.8393 160.613L95.6513 162.493V159.827C95.6513 159.412 95.9871 159.077 96.4013 159.077Z"
        fill="#A3E635" />
    <path
        d="M111.464 159.077C111.878 159.077 112.214 159.412 112.214 159.827V162.493L114.027 160.612C114.314 160.314 114.78 160.314 115.068 160.612C115.355 160.91 115.355 161.394 115.068 161.692L113.231 163.597H115.824C116.238 163.597 116.574 163.933 116.574 164.347C116.574 164.762 116.238 165.097 115.824 165.097H113.225L115.067 167.009C115.355 167.307 115.355 167.791 115.067 168.089C114.78 168.387 114.314 168.387 114.026 168.089L112.214 166.208V168.872C112.214 169.286 111.878 169.622 111.464 169.622C111.05 169.622 110.714 169.286 110.714 168.872V166.209L108.903 168.088C108.615 168.386 108.149 168.386 107.862 168.088C107.574 167.79 107.574 167.306 107.862 167.008L109.703 165.097H107.105C106.691 165.097 106.355 164.762 106.355 164.347C106.355 163.933 106.691 163.597 107.105 163.597H109.697L107.861 161.693C107.574 161.395 107.574 160.911 107.861 160.613C108.149 160.315 108.615 160.315 108.902 160.613L110.714 162.492V159.827C110.714 159.412 111.05 159.077 111.464 159.077Z"
        fill="#A3E635" />
    <path
        d="M123.242 76C123.242 69.3726 117.87 64 111.242 64H81.2422C74.6148 64 69.2422 69.3726 69.2422 76V106C69.2422 112.627 74.6148 118 81.2422 118H111.242C117.87 118 123.242 112.627 123.242 106V76Z"
        fill="#1E293B" />
    <path fill-rule="evenodd" clip-rule="evenodd"
        d="M81.2422 65.5H111.242C117.041 65.5 121.742 70.201 121.742 76V106C121.742 111.799 117.041 116.5 111.242 116.5H81.2422C75.4432 116.5 70.7422 111.799 70.7422 106V76C70.7422 70.201 75.4432 65.5 81.2422 65.5ZM111.242 64C117.87 64 123.242 69.3726 123.242 76V106C123.242 112.627 117.87 118 111.242 118H81.2422C74.6148 118 69.2422 112.627 69.2422 106V76C69.2422 69.3726 74.6148 64 81.2422 64H111.242Z"
        fill="#A3E635" />
    <path fill-rule="evenodd" clip-rule="evenodd"
        d="M91.9525 92.5212V85.3063C91.9525 82.9681 93.848 81.0726 96.1862 81.0726C98.5244 81.0726 100.42 82.9681 100.42 85.3063V92.5212C100.42 94.8594 98.5244 96.7549 96.1862 96.7549C93.848 96.7549 91.9525 94.8594 91.9525 92.5212ZM96.1862 79.5726C99.3529 79.5726 101.92 82.1397 101.92 85.3063V92.5212C101.92 95.6878 99.3529 98.2549 96.1862 98.2549C93.0196 98.2549 90.4525 95.6878 90.4525 92.5212V85.3063C90.4525 82.1397 93.0196 79.5726 96.1862 79.5726Z"
        fill="#A3E635" />
    <path
        d="M87.1885 90.554C87.1885 89.4494 88.0839 88.554 89.1885 88.554H103.188C104.293 88.554 105.188 89.4494 105.188 90.554V99.5728C105.188 100.677 104.293 101.573 103.188 101.573H89.1885C88.0839 101.573 87.1885 100.677 87.1885 99.5728V90.554Z"
        fill="#65A30D" />
    <path fill-rule="evenodd" clip-rule="evenodd"
        d="M103.188 90.054H89.1885C88.9123 90.054 88.6885 90.2778 88.6885 90.554V99.5728C88.6885 99.849 88.9123 100.073 89.1885 100.073H103.188C103.465 100.073 103.688 99.849 103.688 99.5728V90.554C103.688 90.2778 103.465 90.054 103.188 90.054ZM89.1885 88.554C88.0839 88.554 87.1885 89.4494 87.1885 90.554V99.5728C87.1885 100.677 88.0839 101.573 89.1885 101.573H103.188C104.293 101.573 105.188 100.677 105.188 99.5728V90.554C105.188 89.4494 104.293 88.554 103.188 88.554H89.1885Z"
        fill="#A3E635" />
    <path
        d="M146.401 91C146.401 88.7909 148.192 87 150.401 87C152.611 87 154.401 88.7909 154.401 91C154.401 93.2091 152.611 95 150.401 95C148.192 95 146.401 93.2091 146.401 91Z"
        fill="#4D7C0F" />
    <path
        d="M130.401 91C130.401 88.7909 132.192 87 134.401 87C136.611 87 138.401 88.7909 138.401 91C138.401 93.2091 136.611 95 134.401 95C132.192 95 130.401 93.2091 130.401 91Z"
        fill="#82C91E" />
    <path
        d="M162.401 91C162.401 88.7909 164.192 87 166.401 87C168.611 87 170.401 88.7909 170.401 91C170.401 93.2091 168.611 95 166.401 95C164.192 95 162.401 93.2091 162.401 91Z"
        fill="#365314" />
    <path
        d="M46.4014 90.9999C46.4014 93.2091 44.6105 94.9999 42.4014 94.9999C40.1922 94.9999 38.4014 93.2091 38.4014 90.9999C38.4014 88.7908 40.1922 86.9999 42.4014 86.9999C44.6105 86.9999 46.4014 88.7908 46.4014 90.9999Z"
        fill="#4D7C0F" />
    <path
        d="M62.4014 90.9999C62.4014 93.2091 60.6105 94.9999 58.4014 94.9999C56.1922 94.9999 54.4014 93.2091 54.4014 90.9999C54.4014 88.7908 56.1922 86.9999 58.4014 86.9999C60.6105 86.9999 62.4014 88.7908 62.4014 90.9999Z"
        fill="#82C91E" />
    <path
        d="M30.4014 90.9999C30.4014 93.2091 28.6105 94.9999 26.4014 94.9999C24.1922 94.9999 22.4014 93.2091 22.4014 90.9999C22.4014 88.7908 24.1922 86.9999 26.4014 86.9999C28.6105 86.9999 30.4014 88.7908 30.4014 90.9999Z"
        fill="#365314" />
</svg>
