<svg width="193" height="192" viewBox="0 0 193 192" fill="none" xmlns="http://www.w3.org/2000/svg">
    <path
        d="M7.40137 46.0312C7.40137 39.4038 12.774 34.0312 19.4014 34.0312H73.4014C80.0288 34.0312 85.4014 39.4038 85.4014 46.0312V167.031C85.4014 173.659 80.0288 179.031 73.4014 179.031H19.4014C12.7739 179.031 7.40137 173.659 7.40137 167.031V46.0312Z"
        fill="#ECFCCB" />
    <path fill-rule="evenodd" clip-rule="evenodd"
        d="M73.4014 35.5312H19.4014C13.6024 35.5312 8.90137 40.2323 8.90137 46.0312V167.031C8.90137 172.83 13.6024 177.531 19.4014 177.531H73.4014C79.2004 177.531 83.9014 172.83 83.9014 167.031V46.0312C83.9014 40.2323 79.2004 35.5312 73.4014 35.5312ZM19.4014 34.0312C12.774 34.0312 7.40137 39.4038 7.40137 46.0312V167.031C7.40137 173.659 12.7739 179.031 19.4014 179.031H73.4014C80.0288 179.031 85.4014 173.659 85.4014 167.031V46.0312C85.4014 39.4038 80.0288 34.0312 73.4014 34.0312H19.4014Z"
        fill="#65A30D" />
    <path fill-rule="evenodd" clip-rule="evenodd"
        d="M46.4014 46.4092C45.5729 46.4092 44.9014 45.7376 44.9014 44.9092C44.9014 44.0808 45.5729 43.4092 46.4014 43.4092C47.2298 43.4092 47.9014 44.0808 47.9014 44.9092C47.9014 45.7376 47.2298 46.4092 46.4014 46.4092ZM46.4014 47.9092C44.7445 47.9092 43.4014 46.5661 43.4014 44.9092C43.4014 43.2524 44.7445 41.9092 46.4014 41.9092C48.0582 41.9092 49.4014 43.2524 49.4014 44.9092C49.4014 46.5661 48.0582 47.9092 46.4014 47.9092Z"
        fill="#65A30D" />
    <path fill-rule="evenodd" clip-rule="evenodd"
        d="M27.6514 44.5921C27.6514 44.1779 27.9872 43.8421 28.4014 43.8421H38.4014C38.8156 43.8421 39.1514 44.1779 39.1514 44.5921C39.1514 45.0063 38.8156 45.3421 38.4014 45.3421H28.4014C27.9872 45.3421 27.6514 45.0063 27.6514 44.5921Z"
        fill="#65A30D" />
    <path fill-rule="evenodd" clip-rule="evenodd"
        d="M53.6514 44.5921C53.6514 44.1779 53.9872 43.8421 54.4014 43.8421L64.4014 43.8421C64.8156 43.8421 65.1514 44.1779 65.1514 44.5921C65.1514 45.0063 64.8156 45.3421 64.4014 45.3421L54.4014 45.3421C53.9872 45.3421 53.6514 45.0063 53.6514 44.5921Z"
        fill="#65A30D" />
    <path
        d="M78.4014 61.6336C78.4014 57.2154 74.8196 53.6336 70.4014 53.6336H22.4014C17.9831 53.6336 14.4014 57.2154 14.4014 61.6336V157.634C14.4014 162.052 17.9831 165.634 22.4014 165.634H70.4014C74.8196 165.634 78.4014 162.052 78.4014 157.634V61.6336Z"
        fill="#F9FAFB" />
    <path fill-rule="evenodd" clip-rule="evenodd"
        d="M22.4014 55.1336H70.4014C73.9912 55.1336 76.9014 58.0438 76.9014 61.6336V157.634C76.9014 161.223 73.9912 164.134 70.4014 164.134H22.4014C18.8115 164.134 15.9014 161.223 15.9014 157.634V61.6336C15.9014 58.0438 18.8115 55.1336 22.4014 55.1336ZM70.4014 53.6336C74.8196 53.6336 78.4014 57.2154 78.4014 61.6336V157.634C78.4014 162.052 74.8196 165.634 70.4014 165.634H22.4014C17.9831 165.634 14.4014 162.052 14.4014 157.634V61.6336C14.4014 57.2154 17.9831 53.6336 22.4014 53.6336H70.4014Z"
        fill="#65A30D" />
    <path
        d="M97.2925 129.5C97.2925 113.76 84.5326 101 68.7925 101C53.0524 101 40.2925 113.76 40.2925 129.5V158H68.7925C84.5326 158 97.2925 145.24 97.2925 129.5Z"
        fill="#DDEDFE" />
    <path fill-rule="evenodd" clip-rule="evenodd"
        d="M40.2925 158V129.5C40.2925 113.76 53.0524 101 68.7925 101C84.5326 101 97.2925 113.76 97.2925 129.5C97.2925 145.24 84.5326 158 68.7925 158H40.2925ZM41.7925 156.5H68.7925C83.7042 156.5 95.7925 144.412 95.7925 129.5C95.7925 114.588 83.7042 102.5 68.7925 102.5C53.8808 102.5 41.7925 114.588 41.7925 129.5V156.5Z"
        fill="#196FDE" />
    <path
        d="M57.5654 129.501C57.5654 130.932 56.4053 132.092 54.9743 132.092C53.5433 132.092 52.3833 130.932 52.3833 129.501C52.3833 128.07 53.5433 126.91 54.9743 126.91C56.4053 126.91 57.5654 128.07 57.5654 129.501Z"
        fill="#196FDE" />
    <path fill-rule="evenodd" clip-rule="evenodd"
        d="M54.9743 130.592C55.5769 130.592 56.0654 130.103 56.0654 129.501C56.0654 128.898 55.5769 128.41 54.9743 128.41C54.3718 128.41 53.8833 128.898 53.8833 129.501C53.8833 130.103 54.3718 130.592 54.9743 130.592ZM54.9743 132.092C56.4053 132.092 57.5654 130.932 57.5654 129.501C57.5654 128.07 56.4053 126.91 54.9743 126.91C53.5433 126.91 52.3833 128.07 52.3833 129.501C52.3833 130.932 53.5433 132.092 54.9743 132.092Z"
        fill="#196FDE" />
    <path
        d="M71.3832 129.501C71.3832 130.932 70.2232 132.092 68.7922 132.092C67.3612 132.092 66.2012 130.932 66.2012 129.501C66.2012 128.07 67.3612 126.91 68.7922 126.91C70.2232 126.91 71.3832 128.07 71.3832 129.501Z"
        fill="#196FDE" />
    <path fill-rule="evenodd" clip-rule="evenodd"
        d="M68.7922 130.592C69.3948 130.592 69.8832 130.103 69.8832 129.501C69.8832 128.898 69.3948 128.41 68.7922 128.41C68.1896 128.41 67.7012 128.898 67.7012 129.501C67.7012 130.103 68.1896 130.592 68.7922 130.592ZM68.7922 132.092C70.2232 132.092 71.3832 130.932 71.3832 129.501C71.3832 128.07 70.2232 126.91 68.7922 126.91C67.3612 126.91 66.2012 128.07 66.2012 129.501C66.2012 130.932 67.3612 132.092 68.7922 132.092Z"
        fill="#196FDE" />
    <path
        d="M85.2016 129.501C85.2016 130.932 84.0415 132.092 82.6106 132.092C81.1796 132.092 80.0195 130.932 80.0195 129.501C80.0195 128.07 81.1796 126.91 82.6106 126.91C84.0415 126.91 85.2016 128.07 85.2016 129.501Z"
        fill="#196FDE" />
    <path fill-rule="evenodd" clip-rule="evenodd"
        d="M82.6106 130.592C83.2131 130.592 83.7016 130.103 83.7016 129.501C83.7016 128.898 83.2131 128.41 82.6106 128.41C82.008 128.41 81.5195 128.898 81.5195 129.501C81.5195 130.103 82.008 130.592 82.6106 130.592ZM82.6106 132.092C84.0415 132.092 85.2016 130.932 85.2016 129.501C85.2016 128.07 84.0415 126.91 82.6106 126.91C81.1796 126.91 80.0195 128.07 80.0195 129.501C80.0195 130.932 81.1796 132.092 82.6106 132.092Z"
        fill="#196FDE" />
    <path fill-rule="evenodd" clip-rule="evenodd"
        d="M28.7989 153.494L24.0042 158.871L21.1179 156.489L22.0694 155.335L23.839 156.795L27.6759 152.493L28.7989 153.494Z"
        fill="#196FDE" />
    <path fill-rule="evenodd" clip-rule="evenodd"
        d="M33.6051 153.493L28.8082 158.872L27.1402 157.483L28.097 156.333L28.6474 156.792L32.482 152.492L33.6051 153.493Z"
        fill="#196FDE" />
    <path
        d="M107.401 25.0312C107.401 18.4038 112.774 13.0312 119.401 13.0312H173.401C180.029 13.0312 185.401 18.4038 185.401 25.0312V146.031C185.401 152.659 180.029 158.031 173.401 158.031H119.401C112.774 158.031 107.401 152.659 107.401 146.031V25.0312Z"
        fill="#DDEDFE" />
    <path fill-rule="evenodd" clip-rule="evenodd"
        d="M173.401 14.5312H119.401C113.602 14.5312 108.901 19.2323 108.901 25.0312V146.031C108.901 151.83 113.602 156.531 119.401 156.531H173.401C179.2 156.531 183.901 151.83 183.901 146.031V25.0312C183.901 19.2323 179.2 14.5312 173.401 14.5312ZM119.401 13.0312C112.774 13.0312 107.401 18.4038 107.401 25.0312V146.031C107.401 152.659 112.774 158.031 119.401 158.031H173.401C180.029 158.031 185.401 152.659 185.401 146.031V25.0312C185.401 18.4038 180.029 13.0312 173.401 13.0312H119.401Z"
        fill="#196FDE" />
    <path fill-rule="evenodd" clip-rule="evenodd"
        d="M146.401 25.4092C145.573 25.4092 144.901 24.7376 144.901 23.9092C144.901 23.0808 145.573 22.4092 146.401 22.4092C147.23 22.4092 147.901 23.0808 147.901 23.9092C147.901 24.7376 147.23 25.4092 146.401 25.4092ZM146.401 26.9092C144.745 26.9092 143.401 25.5661 143.401 23.9092C143.401 22.2524 144.745 20.9092 146.401 20.9092C148.058 20.9092 149.401 22.2524 149.401 23.9092C149.401 25.5661 148.058 26.9092 146.401 26.9092Z"
        fill="#196FDE" />
    <path fill-rule="evenodd" clip-rule="evenodd"
        d="M127.651 23.5921C127.651 23.1779 127.987 22.8421 128.401 22.8421H138.401C138.816 22.8421 139.151 23.1779 139.151 23.5921C139.151 24.0063 138.816 24.3421 138.401 24.3421H128.401C127.987 24.3421 127.651 24.0063 127.651 23.5921Z"
        fill="#196FDE" />
    <path fill-rule="evenodd" clip-rule="evenodd"
        d="M153.651 23.5921C153.651 23.1779 153.987 22.8421 154.401 22.8421L164.401 22.8421C164.816 22.8421 165.151 23.1779 165.151 23.5921C165.151 24.0063 164.816 24.3421 164.401 24.3421L154.401 24.3421C153.987 24.3421 153.651 24.0063 153.651 23.5921Z"
        fill="#196FDE" />
    <path
        d="M178.401 40.6336C178.401 36.2154 174.82 32.6336 170.401 32.6336H122.401C117.983 32.6336 114.401 36.2154 114.401 40.6336V136.634C114.401 141.052 117.983 144.634 122.401 144.634H170.401C174.82 144.634 178.401 141.052 178.401 136.634V40.6336Z"
        fill="#F9FAFB" />
    <path fill-rule="evenodd" clip-rule="evenodd"
        d="M122.401 34.1336H170.401C173.991 34.1336 176.901 37.0438 176.901 40.6336V136.634C176.901 140.223 173.991 143.134 170.401 143.134H122.401C118.812 143.134 115.901 140.223 115.901 136.634V40.6336C115.901 37.0438 118.812 34.1336 122.401 34.1336ZM170.401 32.6336C174.82 32.6336 178.401 36.2154 178.401 40.6336V136.634C178.401 141.052 174.82 144.634 170.401 144.634H122.401C117.983 144.634 114.401 141.052 114.401 136.634V40.6336C114.401 36.2154 117.983 32.6336 122.401 32.6336H170.401Z"
        fill="#196FDE" />
    <path fill-rule="evenodd" clip-rule="evenodd"
        d="M166.985 132.502L162.191 137.878L159.304 135.497L160.256 134.343L162.026 135.803L165.862 131.501L166.985 132.502Z"
        fill="#65A30D" />
    <path fill-rule="evenodd" clip-rule="evenodd"
        d="M171.792 132.501L166.995 137.88L165.327 136.491L166.284 135.341L166.834 135.799L170.669 131.499L171.792 132.501Z"
        fill="#65A30D" />
    <path
        d="M121.401 121C121.401 112.163 128.565 105 137.401 105C146.238 105 153.401 112.163 153.401 121V137H137.401C128.565 137 121.401 129.837 121.401 121Z"
        fill="#ECFCCB" />
    <path fill-rule="evenodd" clip-rule="evenodd"
        d="M151.901 135.5V121C151.901 112.992 145.409 106.5 137.401 106.5C129.393 106.5 122.901 112.992 122.901 121C122.901 129.008 129.393 135.5 137.401 135.5H151.901ZM137.401 105C128.565 105 121.401 112.163 121.401 121C121.401 129.837 128.565 137 137.401 137H153.401V121C153.401 112.163 146.238 105 137.401 105Z"
        fill="#65A30D" />
    <path
        d="M131.098 121C131.098 121.804 130.447 122.455 129.644 122.455C128.84 122.455 128.189 121.804 128.189 121C128.189 120.197 128.84 119.546 129.644 119.546C130.447 119.546 131.098 120.197 131.098 121Z"
        fill="#65A30D" />
    <path fill-rule="evenodd" clip-rule="evenodd"
        d="M129.602 120.982C129.599 120.99 129.598 120.997 129.598 121C129.598 121.004 129.599 121.011 129.602 121.019C129.605 121.025 129.608 121.029 129.611 121.033C129.615 121.036 129.619 121.039 129.625 121.042C129.633 121.045 129.64 121.046 129.644 121.046C129.647 121.046 129.654 121.045 129.662 121.042C129.668 121.039 129.673 121.036 129.676 121.033C129.679 121.029 129.682 121.025 129.685 121.019C129.688 121.011 129.689 121.004 129.689 121C129.689 120.997 129.688 120.99 129.685 120.982C129.682 120.976 129.679 120.971 129.676 120.968C129.673 120.965 129.668 120.962 129.662 120.959C129.654 120.956 129.647 120.955 129.644 120.955C129.64 120.955 129.633 120.956 129.625 120.959C129.619 120.962 129.615 120.965 129.611 120.968C129.608 120.971 129.605 120.976 129.602 120.982ZM129.644 122.455C130.447 122.455 131.098 121.804 131.098 121C131.098 120.197 130.447 119.546 129.644 119.546C128.84 119.546 128.189 120.197 128.189 121C128.189 121.804 128.84 122.455 129.644 122.455Z"
        fill="#65A30D" />
    <path
        d="M138.855 121C138.855 121.804 138.204 122.455 137.4 122.455C136.597 122.455 135.946 121.804 135.946 121C135.946 120.197 136.597 119.546 137.4 119.546C138.204 119.546 138.855 120.197 138.855 121Z"
        fill="#65A30D" />
    <path fill-rule="evenodd" clip-rule="evenodd"
        d="M137.359 120.982C137.356 120.99 137.355 120.997 137.355 121C137.355 121.004 137.356 121.011 137.359 121.019C137.362 121.025 137.365 121.029 137.368 121.033C137.371 121.036 137.376 121.039 137.382 121.042C137.39 121.045 137.397 121.046 137.4 121.046C137.404 121.046 137.411 121.045 137.419 121.042C137.425 121.039 137.429 121.036 137.433 121.033C137.436 121.029 137.439 121.025 137.442 121.019C137.445 121.011 137.446 121.004 137.446 121C137.446 120.997 137.445 120.99 137.442 120.982C137.439 120.976 137.436 120.971 137.433 120.968C137.429 120.965 137.425 120.962 137.419 120.959C137.411 120.956 137.404 120.955 137.4 120.955C137.397 120.955 137.39 120.956 137.382 120.959C137.376 120.962 137.371 120.965 137.368 120.968C137.365 120.971 137.362 120.976 137.359 120.982ZM137.4 122.455C138.204 122.455 138.855 121.804 138.855 121C138.855 120.197 138.204 119.546 137.4 119.546C136.597 119.546 135.946 120.197 135.946 121C135.946 121.804 136.597 122.455 137.4 122.455Z"
        fill="#65A30D" />
    <path
        d="M146.614 121C146.614 121.804 145.963 122.455 145.159 122.455C144.356 122.455 143.705 121.804 143.705 121C143.705 120.197 144.356 119.546 145.159 119.546C145.963 119.546 146.614 120.197 146.614 121Z"
        fill="#65A30D" />
    <path fill-rule="evenodd" clip-rule="evenodd"
        d="M145.118 120.982C145.115 120.99 145.114 120.997 145.114 121C145.114 121.004 145.115 121.011 145.118 121.019C145.121 121.025 145.124 121.029 145.127 121.033C145.13 121.036 145.135 121.039 145.141 121.042C145.149 121.045 145.156 121.046 145.159 121.046C145.163 121.046 145.17 121.045 145.177 121.042C145.184 121.039 145.188 121.036 145.191 121.033C145.194 121.029 145.198 121.025 145.2 121.019C145.204 121.011 145.205 121.004 145.205 121C145.205 120.997 145.204 120.99 145.2 120.982C145.198 120.976 145.194 120.971 145.191 120.968C145.188 120.965 145.184 120.962 145.177 120.959C145.17 120.956 145.163 120.955 145.159 120.955C145.156 120.955 145.149 120.956 145.141 120.959C145.135 120.962 145.13 120.965 145.127 120.968C145.124 120.971 145.121 120.976 145.118 120.982ZM145.159 122.455C145.963 122.455 146.614 121.804 146.614 121C146.614 120.197 145.963 119.546 145.159 119.546C144.356 119.546 143.705 120.197 143.705 121C143.705 121.804 144.356 122.455 145.159 122.455Z"
        fill="#65A30D" />
    <path
        d="M34.4014 17C34.4014 19.2091 32.6105 21 30.4014 21C28.1922 21 26.4014 19.2091 26.4014 17C26.4014 14.7909 28.1922 13 30.4014 13C32.6105 13 34.4014 14.7909 34.4014 17Z"
        fill="#8BCAFD" />
    <path
        d="M58.4014 17C58.4014 14.7909 60.1922 13 62.4014 13C64.6105 13 66.4014 14.7909 66.4014 17C66.4014 19.2091 64.6105 21 62.4014 21C60.1922 21 58.4014 19.2091 58.4014 17Z"
        fill="#8BCAFD" />
    <path
        d="M50.4014 17C50.4014 19.2091 48.6105 21 46.4014 21C44.1922 21 42.4014 19.2091 42.4014 17C42.4014 14.7909 44.1922 13 46.4014 13C48.6105 13 50.4014 14.7909 50.4014 17Z"
        fill="#52ADF9" />
    <path
        d="M18.4014 17C18.4014 19.2091 16.6105 21 14.4014 21C12.1922 21 10.4014 19.2091 10.4014 17C10.4014 14.7909 12.1922 13 14.4014 13C16.6105 13 18.4014 14.7909 18.4014 17Z"
        fill="#BDDFFE" />
    <path
        d="M74.4014 17C74.4014 14.7909 76.1922 13 78.4014 13C80.6105 13 82.4014 14.7909 82.4014 17C82.4014 19.2091 80.6105 21 78.4014 21C76.1922 21 74.4014 19.2091 74.4014 17Z"
        fill="#BDDFFE" />
    <path
        d="M134.401 175C134.401 177.209 132.611 179 130.401 179C128.192 179 126.401 177.209 126.401 175C126.401 172.791 128.192 171 130.401 171C132.611 171 134.401 172.791 134.401 175Z"
        fill="#BEF264" />
    <path
        d="M158.401 175C158.401 172.791 160.192 171 162.401 171C164.611 171 166.401 172.791 166.401 175C166.401 177.209 164.611 179 162.401 179C160.192 179 158.401 177.209 158.401 175Z"
        fill="#BEF264" />
    <path
        d="M150.401 175C150.401 177.209 148.611 179 146.401 179C144.192 179 142.401 177.209 142.401 175C142.401 172.791 144.192 171 146.401 171C148.611 171 150.401 172.791 150.401 175Z"
        fill="#A3E635" />
    <path
        d="M118.401 175C118.401 177.209 116.611 179 114.401 179C112.192 179 110.401 177.209 110.401 175C110.401 172.791 112.192 171 114.401 171C116.611 171 118.401 172.791 118.401 175Z"
        fill="#D9F99D" />
    <path
        d="M174.401 175C174.401 172.791 176.192 171 178.401 171C180.611 171 182.401 172.791 182.401 175C182.401 177.209 180.611 179 178.401 179C176.192 179 174.401 177.209 174.401 175Z"
        fill="#D9F99D" />
</svg>
