<svg width="250" height="200" viewBox="0 0 250 200" fill="none" xmlns="http://www.w3.org/2000/svg">
<path d="M102.836 11.2609C102.836 5.59395 107.43 1 113.097 1H132.336C138.003 1 142.597 5.59395 142.597 11.2609V30.5C142.597 36.1669 138.003 40.7609 132.336 40.7609H113.097C107.43 40.7609 102.836 36.1669 102.836 30.5V11.2609Z" fill="#E4F0FB"/>
<path d="M35.3184 149.09C35.3184 144.427 39.0986 140.646 43.7618 140.646H59.5933C64.2565 140.646 68.0368 144.427 68.0368 149.09V164.921C68.0368 169.585 64.2565 173.365 59.5933 173.365H43.7618C39.0986 173.365 35.3184 169.585 35.3184 164.921V149.09Z" fill="#E4F0FB"/>
<path d="M110.524 187.044C110.524 184.557 112.54 182.541 115.027 182.541H123.471C125.958 182.541 127.975 184.557 127.975 187.044V195.488C127.975 197.976 125.958 199.992 123.471 199.992H115.027C112.54 199.992 110.524 197.976 110.524 195.488V187.044Z" fill="#E4F0FB"/>
<path d="M232.549 96.4156C232.549 93.9284 234.565 91.9121 237.053 91.9121H245.497C247.984 91.9121 250 93.9284 250 96.4156V104.86C250 107.347 247.984 109.363 245.497 109.363H237.053C234.565 109.363 232.549 107.347 232.549 104.86V96.4156Z" fill="#E4F0FB"/>
<path fill-rule="evenodd" clip-rule="evenodd" d="M120.981 85.2273V46.2676H122.981V85.2273H120.981Z" fill="#657D99"/>
<path fill-rule="evenodd" clip-rule="evenodd" d="M118.185 177.101L118.185 140.646H120.185L120.185 177.101H118.185Z" fill="#657D99"/>
<path fill-rule="evenodd" clip-rule="evenodd" d="M3.77958 109.445L4.54569 107.598C4.83809 107.719 5.16031 107.787 5.50344 107.787H7.61443V109.787H5.50344C4.89282 109.787 4.31057 109.665 3.77958 109.445ZM11.8364 109.787V107.787H13.9474C14.2905 107.787 14.6128 107.719 14.9052 107.598L15.6713 109.445C15.1403 109.665 14.558 109.787 13.9474 109.787H11.8364ZM18.4508 98.9504H16.4508V96.8394C16.4508 96.4963 16.3829 96.174 16.2617 95.8816L18.1091 95.1155C18.3293 95.6465 18.4508 96.2288 18.4508 96.8394V98.9504ZM7.61443 92.3359H5.50344C4.89282 92.3359 4.31057 92.4575 3.77958 92.6777L4.54569 94.5251C4.83809 94.4039 5.16031 94.3359 5.50344 94.3359H7.61443V92.3359ZM1 103.172H3V105.283C3 105.626 3.06792 105.949 3.18918 106.241L1.34172 107.007C1.12153 106.476 1 105.894 1 105.283V103.172ZM1 98.9504H3V96.8394C3 96.4963 3.06792 96.174 3.18918 95.8816L1.34172 95.1155C1.12153 95.6465 1 96.2288 1 96.8394V98.9504ZM11.8364 92.3359V94.3359H13.9474C14.2905 94.3359 14.6128 94.4039 14.9052 94.5251L15.6713 92.6777C15.1403 92.4575 14.558 92.3359 13.9474 92.3359H11.8364ZM18.4508 103.172H16.4508V105.283C16.4508 105.626 16.3829 105.949 16.2617 106.241L18.1091 107.007C18.3293 106.476 18.4508 105.894 18.4508 105.283V103.172Z" fill="#657D99"/>
<path fill-rule="evenodd" clip-rule="evenodd" d="M41.6771 65.5169V63.6484H43.6771V65.5169H41.6771ZM41.6771 72.9908V69.2538H43.6771V72.9908H41.6771ZM41.6771 80.4647V76.7277H43.6771V80.4647H41.6771ZM41.6771 87.9385V84.2016H43.6771V87.9385H41.6771ZM41.6771 95.4124V91.6755H43.6771V95.4124H41.6771ZM41.6771 100.018V99.1493H43.6771V100.018H45.4095V102.018H40.181V100.018H41.6771ZM25.2048 102.018H22.7087V100.018H25.2048V102.018ZM35.1889 102.018H30.1969V100.018H35.1889V102.018ZM52.6068 102.018H50.8744V100.018H55.3543V102.018H54.6068V103.148H52.6068V102.018ZM62.3442 102.018H58.8492V100.018H62.3442V102.018ZM67.5867 102.018H65.8392V100.018H67.5867C68.5476 100.018 69.4663 100.209 70.3048 100.557L69.5387 102.404C68.9388 102.156 68.2801 102.018 67.5867 102.018ZM72.687 107.118C72.687 106.425 72.5491 105.766 72.3003 105.166L74.1478 104.4C74.4955 105.239 74.687 106.157 74.687 107.118C74.687 107.812 74.8248 108.47 75.0736 109.07L73.2261 109.836C72.8784 108.998 72.687 108.079 72.687 107.118ZM52.6068 111.668V107.408H54.6068V111.668H52.6068ZM79.7873 114.218C78.8264 114.218 77.9077 114.027 77.0691 113.679L77.8352 111.832C78.4352 112.081 79.0939 112.218 79.7873 112.218H82.0904V114.218H79.7873ZM89 114.218H86.6968V112.218H89V114.218ZM52.6068 120.188V115.928H54.6068V120.188H52.6068ZM52.6068 128.709V124.449H54.6068V128.709H52.6068ZM52.6068 135.099V132.969H54.6068V135.099H52.6068Z" fill="#74B816"/>
<path fill-rule="evenodd" clip-rule="evenodd" d="M105.714 135.93L106.102 133.968C106.742 134.095 107.405 134.161 108.085 134.161H109.984V136.161H108.085C107.274 136.161 106.481 136.082 105.714 135.93ZM128.966 136.161V134.161H130.865C131.545 134.161 132.208 134.095 132.847 133.968L133.236 135.93C132.469 136.082 131.676 136.161 130.865 136.161H128.966ZM137.615 134.115L136.502 132.453C137.61 131.712 138.564 130.757 139.305 129.65L140.967 130.762C140.08 132.087 138.94 133.228 137.615 134.115ZM143.014 103.131H141.014V101.233C141.014 100.553 140.947 99.8898 140.82 99.2501L142.782 98.8619C142.934 99.6288 143.014 100.422 143.014 101.233V103.131ZM140.967 94.4828L139.305 95.5954C138.564 94.4878 137.61 93.5338 136.502 92.7922L137.615 91.1303C138.94 92.0173 140.08 93.1579 140.967 94.4828ZM109.984 89.084H108.085C107.274 89.084 106.481 89.1635 105.714 89.3152L106.102 91.2772C106.742 91.1507 107.405 91.084 108.085 91.084H109.984V89.084ZM101.335 91.1303L102.448 92.7922C101.34 93.5338 100.386 94.4878 99.6445 95.5954L97.9826 94.4828C98.8696 93.1579 100.01 92.0173 101.335 91.1303ZM95.9363 122.114H97.9363V124.012C97.9363 124.693 98.0029 125.355 98.1295 125.995L96.1675 126.383C96.0158 125.616 95.9363 124.824 95.9363 124.012V122.114ZM97.9826 130.762L99.6445 129.65C100.386 130.757 101.34 131.712 102.448 132.453L101.335 134.115C100.01 133.228 98.8696 132.087 97.9826 130.762ZM95.9363 118.317H97.9363V114.521H95.9363V118.317ZM95.9363 110.724H97.9363V106.928H95.9363V110.724ZM95.9363 103.131H97.9363V101.233C97.9363 100.553 98.0029 99.8898 98.1295 99.2501L96.1675 98.8619C96.0158 99.6288 95.9363 100.422 95.9363 101.233V103.131ZM113.78 89.084V91.084H117.577V89.084H113.78ZM121.373 89.084V91.084H125.17V89.084H121.373ZM128.966 89.084V91.084H130.865C131.545 91.084 132.208 91.1507 132.847 91.2772L133.236 89.3152C132.469 89.1635 131.676 89.084 130.865 89.084H128.966ZM143.014 106.928H141.014V110.724H143.014V106.928ZM143.014 114.521H141.014V118.317H143.014V114.521ZM143.014 122.114H141.014V124.012C141.014 124.693 140.947 125.355 140.82 125.995L142.782 126.383C142.934 125.616 143.014 124.824 143.014 124.012V122.114ZM125.17 136.161V134.161H121.373V136.161H125.17ZM117.577 136.161V134.161H113.78V136.161H117.577Z" fill="#74B816"/>
<path fill-rule="evenodd" clip-rule="evenodd" d="M189.118 87.5389V85.6738H191.118V87.5389H189.118ZM189.118 94.9991V91.269H191.118V94.9991H189.118ZM189.118 98.7293H191.118V99.5943H192.017V101.594H191.118V102.183H189.118V98.7293ZM199.612 101.594H195.815V99.5943H199.612V101.594ZM207.207 101.594H203.41V99.5943H207.207V101.594ZM214.803 101.594H211.005V99.5943H214.803V101.594ZM222.398 101.594H218.6V99.5943H222.398V101.594ZM228.094 101.594H226.196V99.5943H228.094V101.594ZM189.118 108.537V105.36H191.118V108.537H189.118ZM189.118 112.303V111.715H191.118V112.359C191.365 112.387 191.609 112.425 191.85 112.472L191.462 114.434C191.028 114.349 190.579 114.303 190.118 114.303H188.237V112.303H189.118ZM154.381 114.303H152.5V112.303H154.381V114.303ZM161.905 114.303H158.143V112.303H161.905V114.303ZM169.428 114.303H165.666V112.303H169.428V114.303ZM176.952 114.303H173.19V112.303H176.952V114.303ZM184.475 114.303H180.714V112.303H184.475V114.303ZM195.84 117.361C195.337 116.611 194.69 115.964 193.94 115.462L195.052 113.8C196.02 114.448 196.853 115.281 197.501 116.249L195.84 117.361ZM196.998 121.183C196.998 120.722 196.953 120.273 196.867 119.839L198.829 119.451C198.94 120.012 198.998 120.591 198.998 121.183V122.203H196.998V121.183ZM196.998 125.261V124.242H198.998V125.261H196.998Z" fill="#74B816"/>
<path fill-rule="evenodd" clip-rule="evenodd" d="M183.991 177.297L184.379 175.335C185.019 175.462 185.682 175.528 186.362 175.528H188.26V177.528H186.362C185.551 177.528 184.758 177.449 183.991 177.297ZM207.243 177.528V175.528H209.141C209.822 175.528 210.485 175.462 211.124 175.335L211.512 177.297C210.746 177.449 209.953 177.528 209.141 177.528H207.243ZM215.892 175.482L214.779 173.82C215.887 173.079 216.841 172.125 217.582 171.017L219.244 172.13C218.357 173.455 217.216 174.595 215.892 175.482ZM221.29 144.498H219.29V142.6C219.29 141.92 219.224 141.257 219.097 140.617L221.059 140.229C221.211 140.996 221.29 141.789 221.29 142.6V144.498ZM219.244 135.85L217.582 136.963C216.841 135.855 215.887 134.901 214.779 134.159L215.892 132.497C217.216 133.384 218.357 134.525 219.244 135.85ZM188.26 130.451H186.362C185.551 130.451 184.758 130.531 183.991 130.682L184.379 132.644C185.019 132.518 185.682 132.451 186.362 132.451H188.26V130.451ZM179.612 132.497L180.725 134.159C179.617 134.901 178.663 135.855 177.921 136.963L176.259 135.85C177.146 134.525 178.287 133.384 179.612 132.497ZM174.213 163.481H176.213V165.38C176.213 166.06 176.28 166.723 176.406 167.362L174.444 167.751C174.293 166.984 174.213 166.191 174.213 165.38V163.481ZM176.259 172.13L177.921 171.017C178.663 172.125 179.617 173.079 180.725 173.82L179.612 175.482C178.287 174.595 177.146 173.455 176.259 172.13ZM174.213 159.685H176.213V155.888H174.213V159.685ZM174.213 152.092H176.213V148.295H174.213V152.092ZM174.213 144.498H176.213V142.6C176.213 141.92 176.28 141.257 176.406 140.617L174.444 140.229C174.293 140.996 174.213 141.789 174.213 142.6V144.498ZM192.057 130.451V132.451H195.854V130.451H192.057ZM199.65 130.451V132.451H203.447V130.451H199.65ZM207.243 130.451V132.451H209.141C209.822 132.451 210.485 132.518 211.124 132.644L211.512 130.682C210.746 130.531 209.953 130.451 209.141 130.451H207.243ZM221.29 148.295H219.29V152.092H221.29V148.295ZM221.29 155.888H219.29V159.685H221.29V155.888ZM221.29 163.481H219.29V165.38C219.29 166.06 219.224 166.723 219.097 167.362L221.059 167.751C221.211 166.984 221.29 166.191 221.29 165.38V163.481ZM203.447 177.528V175.528H199.65V177.528H203.447ZM195.854 177.528V175.528H192.057V177.528H195.854Z" fill="#74B816"/>
<path fill-rule="evenodd" clip-rule="evenodd" d="M111.094 40.5656L111.482 38.6036C112.003 38.7066 112.542 38.7609 113.097 38.7609H115.501V40.7609H113.097C112.411 40.7609 111.742 40.6937 111.094 40.5656ZM129.931 40.7609V38.7609H132.336C132.89 38.7609 133.43 38.7066 133.95 38.6036L134.338 40.5656C133.691 40.6937 133.021 40.7609 132.336 40.7609H129.931ZM138.037 39.0326L136.924 37.3706C137.826 36.767 138.603 35.9902 139.206 35.0885L140.868 36.2011C140.119 37.3201 139.156 38.2835 138.037 39.0326ZM142.597 13.6658H140.597V11.2609C140.597 10.7066 140.542 10.167 140.439 9.64647L142.401 9.25834C142.529 9.90601 142.597 10.5756 142.597 11.2609V13.6658ZM140.868 5.55977L139.206 6.67241C138.603 5.77069 137.826 4.99391 136.924 4.39022L138.037 2.72828C139.156 3.47741 140.119 4.44081 140.868 5.55977ZM115.501 1H113.097C112.411 1 111.742 1.06718 111.094 1.19531L111.482 3.15728C112.003 3.05431 112.542 3 113.097 3H115.501V1ZM107.395 2.72829L108.508 4.39022C107.606 4.99391 106.83 5.77069 106.226 6.67241L104.564 5.55977C105.313 4.44081 106.276 3.47741 107.395 2.72829ZM102.836 28.0951H104.836V30.5C104.836 31.0543 104.89 31.5939 104.993 32.1144L103.031 32.5025C102.903 31.8549 102.836 31.1853 102.836 30.5V28.0951ZM104.564 36.2011L106.226 35.0885C106.83 35.9902 107.606 36.767 108.508 37.3706L107.395 39.0326C106.277 38.2835 105.313 37.3201 104.564 36.2011ZM102.836 23.2853H104.836V18.4755H102.836V23.2853ZM102.836 13.6658H104.836V11.2609C104.836 10.7066 104.89 10.167 104.993 9.64647L103.031 9.25834C102.903 9.90601 102.836 10.5756 102.836 11.2609V13.6658ZM120.311 1V3H125.121V1H120.311ZM129.931 1V3H132.336C132.89 3 133.43 3.05431 133.95 3.15728L134.338 1.19531C133.691 1.06718 133.021 1 132.336 1H129.931ZM142.597 18.4755H140.597V23.2853H142.597V18.4755ZM142.597 28.0951H140.597V30.5C140.597 31.0543 140.542 31.5939 140.439 32.1144L142.401 32.5025C142.529 31.8549 142.597 31.1853 142.597 30.5V28.0951ZM125.121 40.7609V38.7609H120.311V40.7609H125.121Z" fill="#435B77"/>
<path fill-rule="evenodd" clip-rule="evenodd" d="M40.5298 172.724L41.2959 170.877C42.0528 171.191 42.8845 171.365 43.7618 171.365H45.7408V173.365H43.7618C42.617 173.365 41.5253 173.137 40.5298 172.724ZM57.6144 173.365V171.365H59.5933C60.4707 171.365 61.3023 171.191 62.0593 170.877L62.8254 172.724C61.8298 173.137 60.7382 173.365 59.5933 173.365H57.6144ZM68.0368 151.069H66.0368V149.09C66.0368 148.213 65.8625 147.381 65.5486 146.624L67.3961 145.858C67.8089 146.853 68.0368 147.945 68.0368 149.09V151.069ZM45.7408 140.646H43.7618C42.617 140.646 41.5253 140.874 40.5298 141.287L41.2959 143.135C42.0528 142.821 42.8845 142.646 43.7618 142.646H45.7408V140.646ZM35.3184 162.943H37.3184V164.921C37.3184 165.799 37.4926 166.63 37.8065 167.387L35.9591 168.153C35.5462 167.158 35.3184 166.066 35.3184 164.921V162.943ZM35.3184 158.985H37.3184V155.027H35.3184V158.985ZM35.3184 151.069H37.3184V149.09C37.3184 148.213 37.4926 147.381 37.8065 146.624L35.9591 145.858C35.5462 146.853 35.3184 147.945 35.3184 149.09V151.069ZM49.6986 140.646V142.646H53.6565V140.646H49.6986ZM57.6144 140.646V142.646H59.5933C60.4707 142.646 61.3023 142.821 62.0593 143.135L62.8254 141.287C61.8298 140.874 60.7382 140.646 59.5933 140.646H57.6144ZM68.0368 155.027H66.0368V158.985H68.0368V155.027ZM68.0368 162.943H66.0368V164.921C66.0368 165.799 65.8625 166.63 65.5486 167.387L67.3961 168.154C67.8089 167.158 68.0368 166.066 68.0368 164.921V162.943ZM53.6565 173.365V171.365H49.6986V173.365H53.6565Z" fill="#435B77"/>
<path fill-rule="evenodd" clip-rule="evenodd" d="M113.303 199.65L114.069 197.803C114.362 197.924 114.684 197.992 115.027 197.992H117.138V199.992H115.027C114.416 199.992 113.834 199.87 113.303 199.65ZM121.36 199.992V197.992H123.471C123.814 197.992 124.136 197.924 124.429 197.803L125.195 199.65C124.664 199.87 124.082 199.992 123.471 199.992H121.36ZM127.975 189.155H125.975V187.044C125.975 186.701 125.907 186.379 125.785 186.087L127.633 185.321C127.853 185.852 127.975 186.434 127.975 187.044V189.155ZM117.138 182.541H115.027C114.416 182.541 113.834 182.663 113.303 182.883L114.069 184.73C114.362 184.609 114.684 184.541 115.027 184.541H117.138V182.541ZM110.524 193.377H112.524V195.488C112.524 195.832 112.592 196.154 112.713 196.446L110.865 197.212C110.645 196.681 110.524 196.099 110.524 195.488V193.377ZM110.524 189.155H112.524V187.044C112.524 186.701 112.592 186.379 112.713 186.087L110.865 185.321C110.645 185.852 110.524 186.434 110.524 187.044V189.155ZM121.36 182.541V184.541H123.471C123.814 184.541 124.136 184.609 124.429 184.73L125.195 182.883C124.664 182.663 124.082 182.541 123.471 182.541H121.36ZM127.975 193.377H125.975V195.488C125.975 195.832 125.907 196.154 125.785 196.446L127.633 197.212C127.853 196.681 127.975 196.099 127.975 195.488V193.377Z" fill="#435B77"/>
<path fill-rule="evenodd" clip-rule="evenodd" d="M179.496 80.8234L180.262 78.976C180.98 79.2737 181.769 79.4391 182.601 79.4391H184.503V81.4391H182.601C181.501 81.4391 180.452 81.2201 179.496 80.8234ZM195.912 81.4391V79.4391H197.814C198.646 79.4391 199.435 79.2737 200.153 78.976L200.919 80.8234C199.963 81.2201 198.914 81.4391 197.814 81.4391H195.912ZM205.927 60.0149H203.927V58.1133C203.927 57.2807 203.762 56.4918 203.464 55.7737L205.311 55.0076C205.708 55.9643 205.927 57.0132 205.927 58.1133V60.0149ZM184.503 50H182.601C181.501 50 180.452 50.2189 179.496 50.6156L180.262 52.4631C180.98 52.1653 181.769 52 182.601 52H184.503V50ZM174.488 71.4242H176.488V73.3258C176.488 74.1584 176.653 74.9473 176.951 75.6653L175.104 76.4315C174.707 75.4748 174.488 74.4259 174.488 73.3258V71.4242ZM174.488 67.6211H176.488V63.818H174.488V67.6211ZM174.488 60.0149H176.488V58.1133C176.488 57.2807 176.653 56.4918 176.951 55.7737L175.104 55.0076C174.707 55.9643 174.488 57.0132 174.488 58.1133V60.0149ZM188.306 50V52H192.109V50H188.306ZM195.912 50V52H197.814C198.646 52 199.435 52.1653 200.153 52.4631L200.919 50.6156C199.963 50.2189 198.914 50 197.814 50H195.912ZM205.927 63.818H203.927V67.6211H205.927V63.818ZM205.927 71.4242H203.927V73.3258C203.927 74.1584 203.762 74.9473 203.464 75.6653L205.311 76.4315C205.708 75.4748 205.927 74.4259 205.927 73.3258V71.4242ZM192.109 81.4391V79.4391H188.306V81.4391H192.109Z" fill="#657D99"/>
<path fill-rule="evenodd" clip-rule="evenodd" d="M235.329 109.021L236.095 107.174C236.387 107.295 236.709 107.363 237.053 107.363H239.164V109.363H237.053C236.442 109.363 235.86 109.241 235.329 109.021ZM243.386 109.363V107.363H245.497C245.84 107.363 246.162 107.295 246.454 107.174L247.22 109.021C246.689 109.241 246.107 109.363 245.497 109.363H243.386ZM250 98.5265H248V96.4156C248 96.0724 247.932 95.7502 247.811 95.4578L249.658 94.6917C249.878 95.2227 250 95.8049 250 96.4156V98.5265ZM239.164 91.9121H237.053C236.442 91.9121 235.86 92.0336 235.329 92.2538L236.095 94.1013C236.387 93.98 236.709 93.9121 237.053 93.9121H239.164V91.9121ZM232.549 102.749H234.549V104.86C234.549 105.203 234.617 105.525 234.738 105.817L232.891 106.583C232.671 106.052 232.549 105.47 232.549 104.86V102.749ZM232.549 98.5265H234.549V96.4156C234.549 96.0724 234.617 95.7502 234.738 95.4578L232.891 94.6917C232.671 95.2227 232.549 95.8049 232.549 96.4156V98.5265ZM243.386 91.9121V93.9121H245.497C245.84 93.9121 246.162 93.98 246.454 94.1013L247.22 92.2538C246.689 92.0336 246.107 91.9121 245.497 91.9121H243.386ZM250 102.749H248V104.86C248 105.203 247.932 105.525 247.811 105.817L249.658 106.583C249.878 106.052 250 105.47 250 104.86V102.749Z" fill="#435B77"/>
<path d="M30.3254 35.377V54.6604C30.3254 56.2256 31.6002 57.5166 33.1816 57.5166H34.521C36.0863 57.5166 37.3772 56.2256 37.3772 54.6604V35.377H30.3254Z" fill="#82C91E"/>
<path d="M37.3611 26.0827V22.4519C37.3611 20.8866 36.0863 19.5957 34.521 19.5957H33.1816C31.6164 19.5957 30.3254 20.8866 30.3254 22.4519V26.0827H37.3611Z" fill="#82C91E"/>
<path d="M53.0136 41.7353V22.4519C53.0136 20.8866 51.7388 19.5957 50.1735 19.5957H48.8342C47.2689 19.5957 45.978 20.8866 45.978 22.4519V41.7353H53.0136Z" fill="#82C91E"/>
<path d="M45.978 51.0293V54.6601C45.978 56.2253 47.2689 57.5163 48.8342 57.5163H50.1735C51.7388 57.5163 53.0297 56.2253 53.0297 54.6601V51.0293H45.978Z" fill="#82C91E"/>
<path d="M29.1957 42.8652H25.5649C23.9997 42.8652 22.7087 44.14 22.7087 45.7214V47.0608C22.7087 48.6261 23.9835 49.917 25.5649 49.917H29.1957V42.8652Z" fill="#95DE2D"/>
<path d="M57.7738 42.8652H38.4903V49.917H57.7738C59.339 49.917 60.63 48.6261 60.63 47.0608V45.7214C60.63 44.14 59.339 42.8652 57.7738 42.8652Z" fill="#95DE2D"/>
<path d="M44.8484 27.2129H25.5649C23.9997 27.2129 22.7087 28.4877 22.7087 30.0691V31.4084C22.7087 32.9737 23.9835 34.2647 25.5649 34.2647H44.8484V27.2129Z" fill="#95DE2D"/>
<path d="M57.7738 27.2128H54.1431V34.2646H57.7738C59.3391 34.2646 60.63 32.9898 60.63 31.4084V30.069C60.63 28.4876 59.3391 27.2128 57.7738 27.2128Z" fill="#95DE2D"/>
<path fill-rule="evenodd" clip-rule="evenodd" d="M109.364 100.496H129.586C130.352 100.496 131.087 100.801 131.629 101.344C132.171 101.886 132.475 102.622 132.475 103.39L132.475 128.191C132.475 129.296 131.188 129.899 130.341 129.191L125.1 124.804H109.364C108.598 124.804 107.863 124.499 107.321 123.956C106.779 123.413 106.475 122.677 106.475 121.91V103.39C106.475 102.622 106.779 101.886 107.321 101.344C107.863 100.801 108.598 100.496 109.364 100.496ZM117.049 113.319H111.097V105.126H127.853V113.319H121.999V116.152H124.14C124.526 116.152 124.72 116.619 124.447 116.893L119.831 121.517C119.661 121.686 119.387 121.686 119.218 121.517L114.602 116.893C114.329 116.619 114.522 116.152 114.908 116.152H117.049V113.319Z" fill="#95DE2D"/>
<path d="M190.908 152.152V163.299C190.908 164.204 191.645 164.95 192.559 164.95H193.333C194.238 164.95 194.984 164.204 194.984 163.299V152.152H190.908Z" fill="#82C91E"/>
<path d="M194.975 146.779V144.68C194.975 143.775 194.238 143.029 193.333 143.029H192.559C191.654 143.029 190.908 143.775 190.908 144.68V146.779H194.975Z" fill="#82C91E"/>
<path d="M204.023 155.827V144.68C204.023 143.775 203.286 143.029 202.381 143.029H201.607C200.702 143.029 199.956 143.775 199.956 144.68V155.827H204.023Z" fill="#82C91E"/>
<path d="M199.956 161.201V163.3C199.956 164.204 200.702 164.951 201.607 164.951H202.381C203.286 164.951 204.033 164.204 204.033 163.3V161.201H199.956Z" fill="#82C91E"/>
<path d="M190.255 156.48H188.156C187.251 156.48 186.505 157.217 186.505 158.131V158.905C186.505 159.81 187.242 160.557 188.156 160.557H190.255V156.48Z" fill="#95DE2D"/>
<path d="M206.775 156.48H195.628V160.557H206.775C207.68 160.557 208.426 159.81 208.426 158.905V158.131C208.426 157.217 207.68 156.48 206.775 156.48Z" fill="#95DE2D"/>
<path d="M199.303 147.433H188.156C187.251 147.433 186.505 148.17 186.505 149.084V149.859C186.505 150.763 187.242 151.51 188.156 151.51H199.303V147.433Z" fill="#95DE2D"/>
<path d="M206.775 147.433H204.676V151.51H206.775C207.68 151.51 208.426 150.773 208.426 149.859V149.084C208.426 148.17 207.68 147.433 206.775 147.433Z" fill="#95DE2D"/>
</svg>
