<svg width="136" height="185" viewBox="0 0 136 185" fill="none" xmlns="http://www.w3.org/2000/svg">
<path d="M68 160H81.7C84.5 160 86.7 162.2 86.7 165V178.7C86.7 181.5 84.5 183.7 81.7 183.7H68C65.2 183.7 63 181.5 63 178.7V165C63 162.2 65.2 160 68 160Z" fill="#2E3D4F"/>
<path d="M79.5 170.5L76.6 169.7L78.1 166.5C78.1 166.4 78.2 166.3 78.2 166.2C78.2 166.1 78.2 166 78.1 165.9C78.1 165.8 78 165.7 77.9 165.7C77.8 165.7 77.7 165.6 77.6 165.6L74 164.6C73.8 164.6 73.7 164.6 73.5 164.6C73.3 164.7 73.2 164.8 73.2 165L70.2 171.6C70.2 171.7 70.1 171.8 70.1 171.9C70.1 172 70.1 172.1 70.2 172.2C70.2 172.3 70.3 172.4 70.4 172.4C70.5 172.5 70.6 172.5 70.7 172.5L73.5 173.2L72 178.8L79.9 171.6C80 171.5 80.1 171.4 80.1 171.3C80.1 171.2 80.1 171 80.1 170.9C80.1 170.8 80 170.7 79.9 170.6C79.8 170.6 79.7 170.5 79.5 170.5Z" fill="#95DE2D"/>
<path d="M95.8 160.3H109.5C112.3 160.3 114.5 162.5 114.5 165.3V179C114.5 181.8 112.3 184 109.5 184H95.8C93 184 90.8 181.8 90.8 179V165.3C90.8 162.5 93 160.3 95.8 160.3Z" fill="#2E3D4F"/>
<path d="M107.1 172.7C106 171.6 104.6 171 103 171C101.4 171 100 171.6 98.9 172.7L99.9 173.7C100.7 172.9 101.8 172.5 103 172.5C104.2 172.5 105.3 172.9 106.1 173.7L107.1 172.7Z" fill="#95DE2D"/>
<path d="M109.1 170.6C105.8 167.3 100.3 167.3 97 170.6L98 171.6C100.7 168.9 105.4 168.9 108.1 171.6L109.1 170.6Z" fill="#95DE2D"/>
<path d="M103 176.8C103.8 176.8 104.4 176.2 104.4 175.4C104.4 174.6 103.8 174 103 174C102.2 174 101.6 174.6 101.6 175.4C101.6 176.2 102.2 176.8 103 176.8Z" fill="#95DE2D"/>
<path d="M37 3.5H123.8C128.5 3.5 132.3 7.3 132.3 12V140.1C132.3 144.8 128.5 148.6 123.8 148.6H37C32.3 148.6 28.5 144.8 28.5 140.1V12C28.5 7.3 32.3 3.5 37 3.5Z" fill="#0F1720"/>
<path d="M123.8 152.1H37C30.4 152.1 25 146.7 25 140.1V12C25 5.4 30.4 0 37 0H123.8C130.4 0 135.8 5.4 135.8 12V140.1C135.8 146.7 130.4 152.1 123.8 152.1ZM37 7C34.2 7 32 9.2 32 12V140.1C32 142.9 34.2 145.1 37 145.1H123.8C126.6 145.1 128.8 142.9 128.8 140.1V12C128.8 9.2 126.6 7 123.8 7H37Z" fill="#212D3B"/>
<path d="M80.4 16.1C81.5046 16.1 82.4 15.2046 82.4 14.1C82.4 12.9954 81.5046 12.1 80.4 12.1C79.2955 12.1 78.4 12.9954 78.4 14.1C78.4 15.2046 79.2955 16.1 80.4 16.1Z" fill="#95DE2D"/>
<path d="M55 94.1C54.5 92.9 53.5 91.9 52.3 91.4C51.7 91.1 51 91 50.3 91H5C2.2 91 0 93.2 0 96V102.2V179.3C0 182.1 2.2 184.3 5 184.3H50.3C53.1 184.3 55.3 182.1 55.3 179.3V102.2V96C55.3 95.3 55.2 94.7 55 94.1Z" fill="#2E3D4F"/>
<path d="M27.7 97.8C28.3627 97.8 28.9 97.2627 28.9 96.6C28.9 95.9373 28.3627 95.4 27.7 95.4C27.0373 95.4 26.5 95.9373 26.5 96.6C26.5 97.2627 27.0373 97.8 27.7 97.8Z" fill="#95DE2D"/>
<path d="M28.2 178.2C29.8569 178.2 31.2 176.857 31.2 175.2C31.2 173.543 29.8569 172.2 28.2 172.2C26.5432 172.2 25.2 173.543 25.2 175.2C25.2 176.857 26.5432 178.2 28.2 178.2Z" fill="#0F1720"/>
<path fill-rule="evenodd" clip-rule="evenodd" d="M70.9 52H89.9C90.6 52 91.3 52.3 91.8 52.8C92.3 53.3 92.6 54 92.6 54.7V78.2C92.6 79.2 91.4 79.8 90.6 79.1L85.7 74.9H70.9C70.2 74.9 69.5 74.6 69 74.1C68.5 73.6 68.2 72.9 68.2 72.2V54.7C68.2 54 68.5 53.3 69 52.8C69.5 52.3 70.2 52 70.9 52ZM78.1 64.2H72.5V56.4H88.3V64.2H82.8V66.9H84.8C85.2 66.9 85.3 67.3 85.1 67.6L80.7 72C80.5 72.2 80.3 72.2 80.1 72L75.8 67.6C75.5 67.3 75.7 66.9 76.1 66.9H78.1V64.2Z" fill="#95DE2D"/>
<path d="M5.70001 101.8H49.7C50.8 101.8 51.7 102.7 51.7 103.8V167.8C51.7 168.9 50.8 169.8 49.7 169.8H5.70001C4.60001 169.8 3.70001 168.9 3.70001 167.8V103.8C3.70001 102.7 4.60001 101.8 5.70001 101.8Z" fill="#0F1720"/>
<path d="M22 136.3V146.5C22 147.3 22.7 148 23.5 148H24.2C25 148 25.7 147.3 25.7 146.5V136.3H22Z" fill="#87C214"/>
<path d="M25.7 131.4V129.5C25.7 128.7 25 128 24.2 128H23.5C22.7 128 22 128.7 22 129.5V131.4H25.7Z" fill="#87C214"/>
<path d="M34 139.7V129.5C34 128.7 33.3 128 32.5 128H31.8C31 128 30.3 128.7 30.3 129.5V139.7H34Z" fill="#87C214"/>
<path d="M30.3 144.6V146.5C30.3 147.3 31 148 31.8 148H32.5C33.3 148 34 147.3 34 146.5V144.6H30.3Z" fill="#87C214"/>
<path d="M21.4 140.3H19.5C18.7 140.3 18 141 18 141.8V142.5C18 143.3 18.7 144 19.5 144H21.4V140.3Z" fill="#95D220"/>
<path d="M36.5 140.3H26.3V144H36.5C37.3 144 38 143.3 38 142.5V141.8C38 140.9 37.3 140.3 36.5 140.3Z" fill="#95D220"/>
<path d="M29.7 132H19.5C18.7 132 18 132.7 18 133.5V134.2C18 135 18.7 135.7 19.5 135.7H29.7V132Z" fill="#95D220"/>
<path d="M36.5 132H34.6V135.7H36.5C37.3 135.7 38 135 38 134.2V133.5C38 132.7 37.3 132 36.5 132Z" fill="#95D220"/>
</svg>
