<svg width="180" height="163" viewBox="0 0 180 163" fill="none" xmlns="http://www.w3.org/2000/svg">
<path fill-rule="evenodd" clip-rule="evenodd" d="M47 7H133.8C136.6 7 138.8 9.2 138.8 12V57H145.8V12C145.8 5.4 140.4 0 133.8 0H47C40.4 0 35 5.4 35 12V57H42V12C42 9.2 44.2 7 47 7ZM42 94H35V140.1C35 146.7 40.4 152.1 47 152.1H133.8C140.4 152.1 145.8 146.7 145.8 140.1V94H138.8V140.1C138.8 142.9 136.6 145.1 133.8 145.1H47C44.2 145.1 42 142.9 42 140.1V94Z" fill="#D1DAE6"/>
<path d="M90.4 16C91.5046 16 92.4 15.1046 92.4 14C92.4 12.8954 91.5046 12 90.4 12C89.2955 12 88.4 12.8954 88.4 14C88.4 15.1046 89.2955 16 90.4 16Z" fill="#74B816"/>
<path d="M180 62H115V89H180V62Z" fill="url(#paint0_linear_553_839)"/>
<path fill-rule="evenodd" clip-rule="evenodd" d="M172 80C169.8 80 168 78.2 168 76C168 73.8 169.8 72 172 72C174.2 72 176 73.8 176 76C176 78.2 174.2 80 172 80ZM156 80C153.8 80 152 78.2 152 76C152 73.8 153.8 72 156 72C158.2 72 160 73.8 160 76C160 78.2 158.2 80 156 80ZM136 76C136 78.2 137.8 80 140 80C142.2 80 144 78.2 144 76C144 73.8 142.2 72 140 72C137.8 72 136 73.8 136 76ZM124 80C121.8 80 120 78.2 120 76C120 73.8 121.8 72 124 72C126.2 72 128 73.8 128 76C128 78.2 126.2 80 124 80Z" fill="#EEFBDE"/>
<path d="M65 62H0V89H65V62Z" fill="url(#paint1_linear_553_839)"/>
<path fill-rule="evenodd" clip-rule="evenodd" d="M9 80C11.2 80 13 78.2 13 76C13 73.8 11.2 72 9 72C6.8 72 5 73.8 5 76C5 78.2 6.8 80 9 80ZM25 80C27.2 80 29 78.2 29 76C29 73.8 27.2 72 25 72C22.8 72 21 73.8 21 76C21 78.2 22.8 80 25 80ZM45 76C45 78.2 43.2 80 41 80C38.8 80 37 78.2 37 76C37 73.8 38.8 72 41 72C43.2 72 45 73.8 45 76ZM57 80C59.2 80 61 78.2 61 76C61 73.8 59.2 72 57 72C54.8 72 53 73.8 53 76C53 78.2 54.8 80 57 80Z" fill="#EEFBDE"/>
<path d="M69.9 49H110.9C113.7 49 115.9 51.2 115.9 54V96C115.9 98.8 113.7 101 110.9 101H69.9C67.1 101 64.9 98.8 64.9 96V54C64.9 51.2 67.1 49 69.9 49Z" fill="#E4F0FB"/>
<path d="M90.4 65C87.6 65 85.4 67.2 85.4 70V73H84.4C83.3 73 82.4 73.9 82.4 75V83C82.4 84.1 83.3 85 84.4 85H96.4C97.5 85 98.4 84.1 98.4 83V75C98.4 73.9 97.5 73 96.4 73H95.4V70C95.4 67.2 93.2 65 90.4 65ZM96.4 75V83H84.4V75H96.4ZM87.4 73V70C87.4 68.3 88.7 67 90.4 67C92.1 67 93.4 68.3 93.4 70V73H87.4Z" fill="#374B61"/>
<path d="M61.4 133H119.4C122.2 133 124.4 135.2 124.4 138V158C124.4 160.8 122.2 163 119.4 163H61.4C58.6 163 56.4 160.8 56.4 158V138C56.4 135.2 58.6 133 61.4 133Z" fill="#70CC40"/>
<path d="M78.4 152.5C78.1 152.5 77.9 152.3 77.9 152V144C77.9 143.7 78.1 143.5 78.4 143.5C78.7 143.5 78.9 143.7 78.9 144V152C78.9 152.3 78.7 152.5 78.4 152.5Z" fill="#0F1720"/>
<path d="M82.4 148.5H74.4C74.1 148.5 73.9 148.3 73.9 148C73.9 147.7 74.1 147.5 74.4 147.5H82.4C82.7 147.5 82.9 147.7 82.9 148C82.9 148.3 82.7 148.5 82.4 148.5Z" fill="#0F1720"/>
<path d="M75.6001 151.3C75.5001 151.3 75.3 151.3 75.2 151.2C75 151 75 150.7 75.2 150.5L80.9001 144.8C81.1001 144.6 81.4001 144.6 81.6001 144.8C81.8001 145 81.8001 145.3 81.6001 145.5L75.9001 151.2C75.8001 151.3 75.7001 151.3 75.6001 151.3Z" fill="#0F1720"/>
<path d="M81.2001 151.3C81.1001 151.3 80.9001 151.3 80.8001 151.2L75.1001 145.5C74.9001 145.3 74.9001 145 75.1001 144.8C75.3001 144.6 75.6001 144.6 75.8001 144.8L81.5001 150.5C81.7001 150.7 81.7001 151 81.5001 151.2C81.5001 151.3 81.4001 151.3 81.2001 151.3Z" fill="#0F1720"/>
<path d="M90.4 152.5C90.1 152.5 89.9 152.3 89.9 152V144C89.9 143.7 90.1 143.5 90.4 143.5C90.7 143.5 90.9 143.7 90.9 144V152C90.9 152.3 90.7 152.5 90.4 152.5Z" fill="#0F1720"/>
<path d="M94.4 148.5H86.4C86.1 148.5 85.9 148.3 85.9 148C85.9 147.7 86.1 147.5 86.4 147.5H94.4C94.7 147.5 94.9 147.7 94.9 148C94.9 148.3 94.7 148.5 94.4 148.5Z" fill="#0F1720"/>
<path d="M87.6001 151.3C87.5001 151.3 87.3 151.3 87.2 151.2C87 151 87 150.7 87.2 150.5L92.9001 144.8C93.1001 144.6 93.4001 144.6 93.6001 144.8C93.8001 145 93.8001 145.3 93.6001 145.5L87.9001 151.2C87.8001 151.3 87.7001 151.3 87.6001 151.3Z" fill="#0F1720"/>
<path d="M93.2001 151.3C93.1001 151.3 92.9001 151.3 92.8001 151.2L87.1001 145.5C86.9001 145.3 86.9001 145 87.1001 144.8C87.3001 144.6 87.6001 144.6 87.8001 144.8L93.5001 150.5C93.7001 150.7 93.7001 151 93.5001 151.2C93.5001 151.3 93.4001 151.3 93.2001 151.3Z" fill="#0F1720"/>
<path d="M102.4 152.5C102.1 152.5 101.9 152.3 101.9 152V144C101.9 143.7 102.1 143.5 102.4 143.5C102.7 143.5 102.9 143.7 102.9 144V152C102.9 152.3 102.7 152.5 102.4 152.5Z" fill="#0F1720"/>
<path d="M106.4 148.5H98.4C98.1 148.5 97.9 148.3 97.9 148C97.9 147.7 98.1 147.5 98.4 147.5H106.4C106.7 147.5 106.9 147.7 106.9 148C106.9 148.3 106.7 148.5 106.4 148.5Z" fill="#0F1720"/>
<path d="M99.6001 151.3C99.5001 151.3 99.3 151.3 99.2 151.2C99 151 99 150.7 99.2 150.5L104.9 144.8C105.1 144.6 105.4 144.6 105.6 144.8C105.8 145 105.8 145.3 105.6 145.5L99.9001 151.2C99.8001 151.3 99.7001 151.3 99.6001 151.3Z" fill="#0F1720"/>
<path d="M105.2 151.3C105.1 151.3 104.9 151.3 104.8 151.2L99.1001 145.5C98.9001 145.3 98.9001 145 99.1001 144.8C99.3001 144.6 99.6001 144.6 99.8001 144.8L105.5 150.5C105.7 150.7 105.7 151 105.5 151.2C105.5 151.3 105.4 151.3 105.2 151.3Z" fill="#0F1720"/>
<defs>
<linearGradient id="paint0_linear_553_839" x1="180" y1="75.5" x2="115" y2="75.5" gradientUnits="userSpaceOnUse">
<stop offset="0.3686" stop-color="#B1BFCF"/>
<stop offset="1" stop-color="#B1BFCF" stop-opacity="0"/>
</linearGradient>
<linearGradient id="paint1_linear_553_839" x1="0" y1="75.5" x2="65" y2="75.5" gradientUnits="userSpaceOnUse">
<stop offset="0.3686" stop-color="#B1BFCF"/>
<stop offset="1" stop-color="#B1BFCF" stop-opacity="0"/>
</linearGradient>
</defs>
</svg>
