<svg width="146" height="151" viewBox="0 0 146 151" fill="none" xmlns="http://www.w3.org/2000/svg">
<path d="M5 35H53.4C56.2 35 58.4 37.2 58.4 40V145.8C58.4 148.6 56.2 150.8 53.4 150.8H5C2.2 150.8 0 148.6 0 145.8V40C0 37.2 2.2 35 5 35Z" fill="#D1DAE6"/>
<path d="M54.2 48.8H4.19995V132.8H54.2V48.8Z" fill="#EBF3FA"/>
<path d="M29.2 43.6C30.0284 43.6 30.7 42.9284 30.7 42.1C30.7 41.2716 30.0284 40.6 29.2 40.6C28.3715 40.6 27.7 41.2716 27.7 42.1C27.7 42.9284 28.3715 43.6 29.2 43.6Z" fill="#74B816"/>
<path d="M29.2 145.3C31.2987 145.3 33 143.599 33 141.5C33 139.401 31.2987 137.7 29.2 137.7C27.1013 137.7 25.4 139.401 25.4 141.5C25.4 143.599 27.1013 145.3 29.2 145.3Z" fill="#8A9CB3"/>
<path d="M92 0H140.4C143.2 0 145.4 2.2 145.4 5V110.8C145.4 113.6 143.2 115.8 140.4 115.8H92C89.2 115.8 87 113.6 87 110.8V5C87 2.2 89.2 0 92 0Z" fill="#D1DAE6"/>
<path d="M141.2 13.8H91.2V97.8H141.2V13.8Z" fill="#EBF3FA"/>
<path d="M116.2 8.60001C117.028 8.60001 117.7 7.92843 117.7 7.10001C117.7 6.27158 117.028 5.60001 116.2 5.60001C115.372 5.60001 114.7 6.27158 114.7 7.10001C114.7 7.92843 115.372 8.60001 116.2 8.60001Z" fill="#74B816"/>
<path d="M116.2 110.3C118.299 110.3 120 108.599 120 106.5C120 104.401 118.299 102.7 116.2 102.7C114.101 102.7 112.4 104.401 112.4 106.5C112.4 108.599 114.101 110.3 116.2 110.3Z" fill="#8A9CB3"/>
<path d="M62.5 78.7H46.5C39.9 78.7 34.5 84.1 34.5 90.7V116.7C34.5 117.2 34.7 117.7 35.1 118.1C35.5 118.5 36 118.7 36.5 118.7H62.5C69.1 118.7 74.5 113.3 74.5 106.7V90.7C74.6 84.1 69.2 78.7 62.5 78.7Z" fill="#95DE2D"/>
<path d="M64.7 92.4H44.9001C44.7001 92.4 44.6 92.3 44.5 92.2C44.4 92.1 44.3 91.9 44.3 91.7C44.3 91.5 44.4 91.4 44.5 91.2C44.6 91.1 44.8001 91 44.9001 91H64.7C64.9 91 65 91.1 65.1 91.2C65.2 91.3 65.3001 91.5 65.3001 91.7C65.3001 91.9 65.2 92 65.1 92.2C65 92.3 64.8 92.4 64.7 92.4Z" fill="#0F1720"/>
<path d="M57 99.2H44.9001C44.7001 99.2 44.6 99.1 44.5 99C44.4 98.9 44.3 98.7 44.3 98.5C44.3 98.3 44.4 98.2 44.5 98C44.6 97.9 44.8001 97.8 44.9001 97.8H57C57.2 97.8 57.3001 97.9 57.4001 98C57.5001 98.1 57.6 98.3 57.6 98.5C57.6 98.7 57.5001 98.8 57.4001 99C57.4001 99.1 57.2 99.2 57 99.2Z" fill="#0F1720"/>
<path d="M64.7 99.2H60.6C60.4 99.2 60.3 99.1 60.2 99C60.1 98.9 60 98.7 60 98.5C60 98.3 60.1 98.2 60.2 98C60.3 97.9 60.5 97.8 60.6 97.8H64.7C64.9 97.8 65 97.9 65.1 98C65.2 98.1 65.3 98.3 65.3 98.5C65.3 98.7 65.2 98.8 65.1 99C65 99.1 64.9 99.2 64.7 99.2Z" fill="#0F1720"/>
<path d="M51 107.3H44.9001C44.7001 107.3 44.6 107.2 44.5 107.1C44.4 107 44.3 106.8 44.3 106.6C44.3 106.4 44.4 106.3 44.5 106.1C44.6 106 44.8001 105.9 44.9001 105.9H51C51.2 105.9 51.3001 106 51.4001 106.1C51.5001 106.2 51.6 106.4 51.6 106.6C51.6 106.8 51.5001 106.9 51.4001 107.1C51.3001 107.2 51.1 107.3 51 107.3Z" fill="#0F1720"/>
<path d="M17.7 118.6C22.4496 118.6 26.3 114.75 26.3 110C26.3 105.25 22.4496 101.4 17.7 101.4C12.9503 101.4 9.09998 105.25 9.09998 110C9.09998 114.75 12.9503 118.6 17.7 118.6Z" fill="#374B61"/>
<path d="M13 110.7L15.3 112.4L19 108.3L18.3 107.7L15.2 111.1L13.6 109.9L13 110.7ZM22.4 108.3L21.7 107.7L18.6 111.1L18.2 110.8L17.6 111.5L18.7 112.3L22.4 108.3Z" fill="#95DE2D"/>
<path d="M83.6 24.4H99.6C106.2 24.4 111.6 29.8 111.6 36.4V62.4C111.6 62.9 111.4 63.4 111 63.8C110.6 64.2 110.1 64.4 109.6 64.4H83.6C77 64.4 71.6 59 71.6 52.4V36.4C71.5 29.7 76.9 24.4 83.6 24.4Z" fill="#95DE2D"/>
<path d="M101.2 38H81.4C81.2 38 81.1 37.9 81 37.8C80.9 37.7 80.8 37.5 80.8 37.3C80.8 37.1 80.9 37 81 36.8C81.1 36.7 81.3 36.6 81.4 36.6H101.2C101.4 36.6 101.5 36.7 101.6 36.8C101.7 36.9 101.8 37.1 101.8 37.3C101.8 37.5 101.7 37.6 101.6 37.8C101.5 38 101.4 38 101.2 38Z" fill="#0F1720"/>
<path d="M93.6 44.8H81.4C81.2 44.8 81.1 44.7 81 44.6C80.9 44.5 80.8 44.3 80.8 44.1C80.8 43.9 80.9 43.8 81 43.6C81.1 43.5 81.3 43.4 81.4 43.4H93.5C93.7 43.4 93.8 43.5 93.9 43.6C94 43.7 94.1 43.9 94.1 44.1C94.1 44.3 94 44.4 93.9 44.6C93.9 44.8 93.7 44.8 93.6 44.8Z" fill="#0F1720"/>
<path d="M101.2 44.8H97.1C96.9 44.8 96.8 44.7 96.7 44.6C96.6 44.5 96.5 44.3 96.5 44.1C96.5 43.9 96.6 43.8 96.7 43.6C96.8 43.5 97 43.4 97.1 43.4H101.2C101.4 43.4 101.5 43.5 101.6 43.6C101.7 43.7 101.8 43.9 101.8 44.1C101.8 44.3 101.7 44.4 101.6 44.6C101.6 44.8 101.4 44.8 101.2 44.8Z" fill="#0F1720"/>
<path d="M87.5 52.9H81.4C81.2 52.9 81.1 52.8 81 52.7C80.9 52.6 80.8 52.4 80.8 52.2C80.8 52 80.9 51.9 81 51.7C81.1 51.6 81.3 51.5 81.4 51.5H87.5C87.7 51.5 87.8 51.6 87.9 51.7C88 51.8 88.1 52 88.1 52.2C88.1 52.4 88 52.5 87.9 52.7C87.8 52.9 87.7 52.9 87.5 52.9Z" fill="#0F1720"/>
<path d="M128.4 64.3C133.15 64.3 137 60.4497 137 55.7C137 50.9504 133.15 47.1 128.4 47.1C123.65 47.1 119.8 50.9504 119.8 55.7C119.8 60.4497 123.65 64.3 128.4 64.3Z" fill="#374B61"/>
<path d="M123.7 56.3L126 58L129.7 53.9L129 53.3L125.9 56.7L124.3 55.5L123.7 56.3ZM133.1 53.9L132.4 53.3L129.3 56.7L128.9 56.4L128.3 57.1L129.4 57.9L133.1 53.9Z" fill="#95DE2D"/>
<path fill-rule="evenodd" clip-rule="evenodd" d="M76.4 134.6C76.4 136.8 74.6 138.6 72.4 138.6C70.2 138.6 68.4 136.8 68.4 134.6C68.4 132.4 70.2 130.6 72.4 130.6C74.6 130.6 76.4 132.4 76.4 134.6ZM92.6 134.7C92.6 136.9 90.8 138.7 88.6 138.7C86.4 138.7 84.6 136.9 84.6 134.7C84.6 132.5 86.4 130.7 88.6 130.7C90.8 130.7 92.6 132.5 92.6 134.7ZM104.7 138.7C106.9 138.7 108.7 136.9 108.7 134.7C108.7 132.5 106.9 130.7 104.7 130.7C102.5 130.7 100.7 132.5 100.7 134.7C100.7 136.9 102.5 138.7 104.7 138.7ZM124.9 134.7C124.9 136.9 123.1 138.7 120.9 138.7C118.7 138.7 116.9 136.9 116.9 134.7C116.9 132.5 118.7 130.7 120.9 130.7C123.1 130.7 124.9 132.5 124.9 134.7ZM136.9 138.7C139.1 138.7 140.9 136.9 140.9 134.7C140.9 132.5 139.1 130.7 136.9 130.7C134.7 130.7 132.9 132.5 132.9 134.7C132.9 136.9 134.7 138.7 136.9 138.7Z" fill="url(#paint0_linear_553_813)"/>
<defs>
<linearGradient id="paint0_linear_553_813" x1="68.4027" y1="134.652" x2="143.492" y2="134.652" gradientUnits="userSpaceOnUse">
<stop stop-color="#70CC40" stop-opacity="0"/>
<stop offset="0.5417" stop-color="#70CC40"/>
<stop offset="1" stop-color="#70CC40" stop-opacity="0"/>
</linearGradient>
</defs>
</svg>
