<?xml version="1.0" encoding="UTF-8" standalone="no"?>
<svg
   xmlns:dc="http://purl.org/dc/elements/1.1/"
   xmlns:cc="http://creativecommons.org/ns#"
   xmlns:rdf="http://www.w3.org/1999/02/22-rdf-syntax-ns#"
   xmlns:svg="http://www.w3.org/2000/svg"
   xmlns="http://www.w3.org/2000/svg"
   xmlns:sodipodi="http://sodipodi.sourceforge.net/DTD/sodipodi-0.dtd"
   xmlns:inkscape="http://www.inkscape.org/namespaces/inkscape"
   width="65"
   height="30"
   viewBox="0 0 65 30"
   fill="none"
   version="1.1"
   id="svg998"
   sodipodi:docname="logo-with-background-and-name.svg"
   inkscape:version="1.0.2 (e86c870879, 2021-01-15)">
  <metadata
     id="metadata1004">
    <rdf:RDF>
      <cc:Work
         rdf:about="">
        <dc:format>image/svg+xml</dc:format>
        <dc:type
           rdf:resource="http://purl.org/dc/dcmitype/StillImage" />
        <dc:title></dc:title>
      </cc:Work>
    </rdf:RDF>
  </metadata>
  <defs
     id="defs1002">
    <rect
       x="31.064678"
       y="-2.7477918"
       width="55.911552"
       height="42.06097"
       id="rect3549" />
    <rect
       x="34.544521"
       y="3.4048617"
       width="28.634844"
       height="9.1282396"
       id="rect2390" />
  </defs>
  <sodipodi:namedview
     pagecolor="#ffffff"
     bordercolor="#666666"
     borderopacity="1"
     objecttolerance="10"
     gridtolerance="10"
     guidetolerance="10"
     inkscape:pageopacity="0"
     inkscape:pageshadow="2"
     inkscape:window-width="1920"
     inkscape:window-height="1025"
     id="namedview1000"
     showgrid="false"
     inkscape:pagecheckerboard="true"
     fit-margin-top="0"
     fit-margin-left="0"
     fit-margin-right="0"
     fit-margin-bottom="0"
     inkscape:zoom="19.714286"
     inkscape:cx="35"
     inkscape:cy="15"
     inkscape:window-x="0"
     inkscape:window-y="0"
     inkscape:window-maximized="1"
     inkscape:current-layer="svg998" />
  <ellipse
     style="fill:#81c71e;fill-opacity:1;stroke:#1abc9c;stroke-width:0"
     id="path2366"
     cx="15.000001"
     cy="15"
     rx="15"
     ry="14.999999" />
  <path
     d="m 8.2803765,5.2081235 c -0.5092128,0 -0.9978059,0.2061428 -1.357875,0.572625 -0.3600697,0.3664812 -0.5625,0.8632152 -0.5625,1.3815 V 19.668875 c 0,0.518284 0.2024303,1.016115 0.5625,1.382624 0.3600691,0.366451 0.8486622,0.5715 1.357875,0.5715 H 18.738376 l 3.484125,2.96325 c 0.562522,0.478425 1.4175,0.07109 1.4175,-0.675 V 7.1622485 c 0,-0.5182848 -0.202442,-1.0150188 -0.5625,-1.3815 -0.360058,-0.3664822 -0.848691,-0.572625 -1.357875,-0.572625 z m 1.152,3.126375 H 20.567626 v 5.5327505 h -3.89025 v 1.913626 h 1.423125 c 0.256608,0 0.385007,0.315958 0.203625,0.500624 l -3.067875,3.121875 c -0.112493,0.114451 -0.294757,0.114451 -0.40725,0 l -3.067875,-3.121875 c -0.181429,-0.184666 -0.05297,-0.500624 0.203625,-0.500624 h 1.423125 V 13.867249 H 9.4323765 Z"
     fill="#ffffff"
     id="path996"
     style="stroke-width:0.576" />
  <g
     aria-label="BRIAR "
     transform="translate(0,4.9557031)"
     id="text2388"
     style="font-style:normal;font-variant:normal;font-weight:normal;font-stretch:normal;font-size:8px;line-height:0;font-family:'Noto Sans';-inkscape-font-specification:'Noto Sans';letter-spacing:0px;word-spacing:0px;white-space:pre;shape-inside:url(#rect2390);fill:#000000;fill-opacity:1;stroke:none">
    <path
       d="m 40.480922,9.0442969 q 0,0.848 -0.552,1.3440001 -0.552,0.496 -1.624,0.496 h -3.04 V 4.4042969 h 2.968 q 0.504,0 0.872,0.144 0.376,0.144 0.616,0.384 0.24,0.24 0.36,0.56 0.12,0.312 0.12,0.656 0,0.456 -0.176,0.768 -0.168,0.312 -0.552,0.544 v 0.016 q 0.504,0.224 0.752,0.624 0.256,0.4 0.256,0.944 z m -1.064,-2.896 q 0,-1.024 -1.264,-1.024 h -2.208 l 0.08,0.08 v 1.904 l -0.08,0.08 h 2.208 q 0.344,0 0.584,-0.08 0.248,-0.08 0.392,-0.224 0.152,-0.144 0.216,-0.328 0.072,-0.192 0.072,-0.408 z m 0.28,2.896 q 0,-0.528 -0.336,-0.832 -0.336,-0.304 -1.064,-0.304 h -2.352 l 0.08,0.08 v 2.0960001 l -0.08,0.08 h 2.36 q 0.744,0 1.064,-0.2880001 0.328,-0.288 0.328,-0.832 z"
       style="font-style:normal;font-variant:normal;font-weight:normal;font-stretch:normal;line-height:1.25;font-family:'Sinkin Sans';-inkscape-font-specification:'Sinkin Sans'"
       id="path3553" />
    <path
       d="m 47.096912,10.884297 h -0.856 l -0.808,-1.7040001 q -0.232,-0.504 -0.624,-0.736 -0.384,-0.232 -1.032,-0.232 h -1.536 l 0.08,0.08 v 2.5920001 h -0.76 V 4.4042969 h 2.84 q 0.44,0 0.832,0.12 0.4,0.12 0.696,0.36 0.304,0.232 0.472,0.592 0.176,0.36 0.176,0.84 0,0.32 -0.104,0.592 -0.104,0.272 -0.28,0.488 -0.176,0.216 -0.416,0.368 -0.232,0.144 -0.496,0.216 v 0.016 q 0.232,0.096 0.456,0.312 0.232,0.216 0.392,0.552 z m -1.304,-4.5680001 q 0,-0.32 -0.112,-0.544 -0.104,-0.232 -0.288,-0.376 -0.184,-0.144 -0.44,-0.208 -0.256,-0.064 -0.552,-0.064 h -2.16 l 0.08,0.08 v 2.208 l -0.08,0.08 h 2.072 q 0.704,0 1.088,-0.328 0.392,-0.328 0.392,-0.848 z"
       style="font-style:normal;font-variant:normal;font-weight:normal;font-stretch:normal;line-height:1.25;font-family:'Sinkin Sans';-inkscape-font-specification:'Sinkin Sans'"
       id="path3555" />
    <path
       d="m 48.656902,10.884297 h -0.76 V 4.4042969 h 0.76 z"
       style="font-style:normal;font-variant:normal;font-weight:normal;font-stretch:normal;line-height:1.25;font-family:'Sinkin Sans';-inkscape-font-specification:'Sinkin Sans'"
       id="path3557" />
    <path
       d="m 56.040901,10.884297 h -0.832 l -0.688,-1.5600001 0.04,-0.08 h -3.544 l 0.04,0.08 -0.688,1.5600001 h -0.832 l 2.848,-6.4800001 h 0.808 z m -1.824,-2.3600001 -0.08,-0.08 -1.144,-2.6 -0.192,-0.648 h -0.016 l -0.2,0.648 -1.144,2.6 -0.08,0.08 z"
       style="font-style:normal;font-variant:normal;font-weight:normal;font-stretch:normal;line-height:1.25;font-family:'Sinkin Sans';-inkscape-font-specification:'Sinkin Sans'"
       id="path3559" />
    <path
       d="m 62.416889,10.884297 h -0.856 l -0.808,-1.7040001 q -0.232,-0.504 -0.624,-0.736 -0.384,-0.232 -1.032,-0.232 h -1.536 l 0.08,0.08 v 2.5920001 h -0.76 V 4.4042969 h 2.84 q 0.44,0 0.832,0.12 0.4,0.12 0.696,0.36 0.304,0.232 0.472,0.592 0.176,0.36 0.176,0.84 0,0.32 -0.104,0.592 -0.104,0.272 -0.28,0.488 -0.176,0.216 -0.416,0.368 -0.232,0.144 -0.496,0.216 v 0.016 q 0.232,0.096 0.456,0.312 0.232,0.216 0.392,0.552 z m -1.304,-4.5680001 q 0,-0.32 -0.112,-0.544 -0.104,-0.232 -0.288,-0.376 -0.184,-0.144 -0.44,-0.208 -0.256,-0.064 -0.552,-0.064 h -2.16 l 0.08,0.08 v 2.208 l -0.08,0.08 h 2.072 q 0.704,0 1.088,-0.328 0.392,-0.328 0.392,-0.848 z"
       style="font-style:normal;font-variant:normal;font-weight:normal;font-stretch:normal;line-height:1.25;font-family:'Sinkin Sans';-inkscape-font-specification:'Sinkin Sans'"
       id="path3561" />
  </g>
  <g
     aria-label="MAILBOX"
     id="text3545"
     style="font-style:normal;font-variant:normal;font-weight:normal;font-stretch:normal;font-size:5.38666px;line-height:1.25;font-family:'Noto Sans';-inkscape-font-specification:'Noto Sans';letter-spacing:0px;word-spacing:0px;fill:#000000;fill-opacity:1;stroke:none;stroke-width:1.01">
    <path
       d="m 39.547315,21.683062 h -0.511733 v -3.21045 h -0.01077 l -0.29088,0.694879 -1.325118,2.574824 h -0.01077 l -1.341279,-2.607144 -0.269333,-0.662559 h -0.01077 v 3.21045 H 35.26492 v -4.363195 h 0.457866 v 0 l 1.465172,2.908796 0.215466,0.511733 h 0.01077 l 0.215466,-0.511733 1.459785,-2.908796 h 0.457866 z"
       style="font-style:normal;font-variant:normal;font-weight:normal;font-stretch:normal;font-size:5.38666px;font-family:'Sinkin Sans';-inkscape-font-specification:'Sinkin Sans';stroke-width:1.01"
       id="path3564" />
    <path
       d="m 44.492261,21.683062 h -0.560213 l -0.463252,-1.050399 0.02693,-0.05387 h -2.386291 l 0.02693,0.05387 -0.463253,1.050399 h -0.560213 l 1.917651,-4.363195 h 0.544053 z m -1.228159,-1.589065 -0.05387,-0.05387 -0.770293,-1.750664 -0.129279,-0.43632 h -0.01077 l -0.134666,0.43632 -0.770293,1.750664 -0.05387,0.05387 z"
       style="font-style:normal;font-variant:normal;font-weight:normal;font-stretch:normal;font-size:5.38666px;font-family:'Sinkin Sans';-inkscape-font-specification:'Sinkin Sans';stroke-width:1.01"
       id="path3566" />
    <path
       d="m 45.596519,21.683062 h -0.511733 v -4.363195 h 0.511733 z"
       style="font-style:normal;font-variant:normal;font-weight:normal;font-stretch:normal;font-size:5.38666px;font-family:'Sinkin Sans';-inkscape-font-specification:'Sinkin Sans';stroke-width:1.01"
       id="path3568" />
    <path
       d="m 49.544939,21.683062 h -2.95189 v -4.363195 h 0.511733 v 3.819142 l -0.05387,0.05925 h 2.494024 z"
       style="font-style:normal;font-variant:normal;font-weight:normal;font-stretch:normal;font-size:5.38666px;font-family:'Sinkin Sans';-inkscape-font-specification:'Sinkin Sans';stroke-width:1.01"
       id="path3570" />
    <path
       d="m 53.62264,20.44413 q 0,0.570986 -0.37168,0.904959 -0.371679,0.333973 -1.093492,0.333973 h -2.04693 v -4.363195 h 1.99845 q 0.33936,0 0.587146,0.09696 0.253173,0.09696 0.414773,0.258559 0.1616,0.1616 0.2424,0.377067 0.0808,0.210079 0.0808,0.441706 0,0.307039 -0.118507,0.517119 -0.11312,0.21008 -0.371679,0.366293 v 0.01077 q 0.339359,0.150827 0.506346,0.42016 0.172373,0.269333 0.172373,0.635626 z m -0.716426,-1.949971 q 0,-0.689493 -0.851092,-0.689493 h -1.486718 l 0.05387,0.05387 v 1.282025 l -0.05387,0.05387 h 1.486718 q 0.231626,0 0.393226,-0.05387 0.166986,-0.05387 0.263946,-0.150826 0.102347,-0.09696 0.14544,-0.220854 0.04848,-0.129279 0.04848,-0.274719 z m 0.188533,1.949971 q 0,-0.35552 -0.226239,-0.560213 -0.22624,-0.204693 -0.716426,-0.204693 h -1.583678 l 0.05387,0.05387 v 1.411305 l -0.05387,0.05387 h 1.589064 q 0.50096,0 0.716426,-0.19392 0.220853,-0.193919 0.220853,-0.560212 z"
       style="font-style:normal;font-variant:normal;font-weight:normal;font-stretch:normal;font-size:5.38666px;font-family:'Sinkin Sans';-inkscape-font-specification:'Sinkin Sans';stroke-width:1.01"
       id="path3572" />
    <path
       d="m 58.249774,19.528398 q 0,0.495572 -0.134667,0.904958 -0.134666,0.404 -0.393226,0.69488 -0.25856,0.290879 -0.641013,0.452479 -0.382453,0.156213 -0.878025,0.156213 -0.50096,0 -0.883413,-0.156213 -0.382452,-0.1616 -0.641012,-0.452479 -0.25856,-0.29088 -0.38784,-0.69488 -0.129279,-0.409386 -0.129279,-0.904958 0,-0.495573 0.129279,-0.910346 0.134667,-0.420159 0.38784,-0.716426 0.25856,-0.301653 0.641012,-0.468639 0.382453,-0.166987 0.883413,-0.166987 0.506346,0 0.888799,0.166987 0.382452,0.166986 0.641012,0.468639 0.25856,0.296267 0.38784,0.711039 0.12928,0.414773 0.12928,0.915733 z m -0.527893,0 q 0,-0.35552 -0.08619,-0.67872 -0.0808,-0.323199 -0.263946,-0.565599 -0.17776,-0.2424 -0.46864,-0.387839 -0.285492,-0.14544 -0.694879,-0.14544 -0.409386,0 -0.700265,0.140053 -0.285493,0.140053 -0.46864,0.382453 -0.183146,0.242399 -0.269333,0.565599 -0.0808,0.3232 -0.0808,0.689493 0,0.360906 0.08619,0.673332 0.08619,0.312426 0.269333,0.549439 0.183146,0.231627 0.468639,0.366293 0.29088,0.134667 0.694879,0.134667 0.409387,0 0.694879,-0.134667 0.285493,-0.134666 0.46864,-0.366293 0.183146,-0.237013 0.263946,-0.549439 0.08619,-0.312426 0.08619,-0.673332 z"
       style="font-style:normal;font-variant:normal;font-weight:normal;font-stretch:normal;font-size:5.38666px;font-family:'Sinkin Sans';-inkscape-font-specification:'Sinkin Sans';stroke-width:1.01"
       id="path3574" />
    <path
       d="M 62.472906,21.683062 H 61.826507 L 60.829975,20.336397 60.533708,19.86237 h -0.01077 l -0.30704,0.474027 -1.001918,1.346665 h -0.641013 l 1.632158,-2.192371 -1.615998,-2.170824 h 0.646399 l 0.996532,1.346665 0.29088,0.452479 h 0.01077 l 0.285493,-0.452479 1.001919,-1.346665 h 0.635626 l -1.615998,2.176211 z"
       style="font-style:normal;font-variant:normal;font-weight:normal;font-stretch:normal;font-size:5.38666px;font-family:'Sinkin Sans';-inkscape-font-specification:'Sinkin Sans';stroke-width:1.01"
       id="path3576" />
  </g>
  <text
     xml:space="preserve"
     id="text3547"
     style="font-style:normal;font-variant:normal;font-weight:normal;font-stretch:normal;font-size:10.6667px;line-height:1.25;font-family:'Noto Sans';-inkscape-font-specification:'Noto Sans';letter-spacing:0px;word-spacing:0px;white-space:pre;shape-inside:url(#rect3549);fill:#000000;fill-opacity:1;stroke:none;" />
</svg>
