<?xml version="1.0" encoding="UTF-8" standalone="no"?>
<svg
   xmlns:dc="http://purl.org/dc/elements/1.1/"
   xmlns:cc="http://creativecommons.org/ns#"
   xmlns:rdf="http://www.w3.org/1999/02/22-rdf-syntax-ns#"
   xmlns:svg="http://www.w3.org/2000/svg"
   xmlns="http://www.w3.org/2000/svg"
   xmlns:sodipodi="http://sodipodi.sourceforge.net/DTD/sodipodi-0.dtd"
   xmlns:inkscape="http://www.inkscape.org/namespaces/inkscape"
   width="30.000002"
   height="30"
   viewBox="0 0 30.000002 30"
   fill="none"
   version="1.1"
   id="svg998"
   sodipodi:docname="logo-with-background-square.svg"
   inkscape:version="1.0.2 (e86c870879, 2021-01-15)"
   inkscape:export-filename="/home/someone/Desktop/Briar/Logo and Website/Scalable/Mailbox/logo.png"
   inkscape:export-xdpi="1638.4"
   inkscape:export-ydpi="1638.4">
  <metadata
     id="metadata1004">
    <rdf:RDF>
      <cc:Work
         rdf:about="">
        <dc:format>image/svg+xml</dc:format>
        <dc:type
           rdf:resource="http://purl.org/dc/dcmitype/StillImage" />
        <dc:title></dc:title>
      </cc:Work>
    </rdf:RDF>
  </metadata>
  <defs
     id="defs1002" />
  <sodipodi:namedview
     pagecolor="#ffffff"
     bordercolor="#666666"
     borderopacity="1"
     objecttolerance="10"
     gridtolerance="10"
     guidetolerance="10"
     inkscape:pageopacity="0"
     inkscape:pageshadow="2"
     inkscape:window-width="1920"
     inkscape:window-height="1025"
     id="namedview1000"
     showgrid="false"
     inkscape:pagecheckerboard="true"
     fit-margin-top="0"
     fit-margin-left="0"
     fit-margin-right="0"
     fit-margin-bottom="0"
     inkscape:zoom="23.323529"
     inkscape:cx="15.000001"
     inkscape:cy="15"
     inkscape:window-x="0"
     inkscape:window-y="0"
     inkscape:window-maximized="1"
     inkscape:current-layer="svg998"
     inkscape:document-rotation="0" />
  <rect
     style="fill:#81c71e;stroke:#1abc9c;stroke-width:0;fill-opacity:1"
     id="rect4184"
     width="30"
     height="30"
     x="5e-07"
     y="5e-07" />
  <path
     d="m 8.2803765,5.2081235 c -0.5092128,0 -0.9978059,0.2061428 -1.357875,0.572625 -0.3600697,0.3664812 -0.5625,0.8632152 -0.5625,1.3815 V 19.668875 c 0,0.518284 0.2024303,1.016115 0.5625,1.382624 0.3600691,0.366451 0.8486622,0.5715 1.357875,0.5715 H 18.738376 l 3.484125,2.96325 c 0.562522,0.478425 1.4175,0.07109 1.4175,-0.675 V 7.1622485 c 0,-0.5182848 -0.202442,-1.0150188 -0.5625,-1.3815 -0.360058,-0.3664822 -0.848691,-0.572625 -1.357875,-0.572625 z m 1.152,3.126375 H 20.567626 v 5.5327505 h -3.89025 v 1.913626 h 1.423125 c 0.256608,0 0.385007,0.315958 0.203625,0.500624 l -3.067875,3.121875 c -0.112493,0.114451 -0.294757,0.114451 -0.40725,0 l -3.067875,-3.121875 c -0.181429,-0.184666 -0.05297,-0.500624 0.203625,-0.500624 h 1.423125 V 13.867249 H 9.4323765 Z"
     fill="#ffffff"
     id="path996"
     style="stroke-width:0.576" />
</svg>
