<?xml version="1.0" encoding="UTF-8" standalone="no"?>
<!-- Created with Inkscape (http://www.inkscape.org/) -->

<svg
   xmlns:dc="http://purl.org/dc/elements/1.1/"
   xmlns:cc="http://creativecommons.org/ns#"
   xmlns:rdf="http://www.w3.org/1999/02/22-rdf-syntax-ns#"
   xmlns:svg="http://www.w3.org/2000/svg"
   xmlns="http://www.w3.org/2000/svg"
   xmlns:sodipodi="http://sodipodi.sourceforge.net/DTD/sodipodi-0.dtd"
   xmlns:inkscape="http://www.inkscape.org/namespaces/inkscape"
   width="62.177082mm"
   height="62.177082mm"
   viewBox="0 0 62.177082 62.177082"
   version="1.1"
   id="svg994"
   inkscape:version="0.92.5 (2060ec1f9f, 2020-04-08)"
   sodipodi:docname="logo.svg">
  <defs
     id="defs988" />
  <sodipodi:namedview
     id="base"
     pagecolor="#ffffff"
     bordercolor="#666666"
     borderopacity="1.0"
     inkscape:pageopacity="0.0"
     inkscape:pageshadow="2"
     inkscape:zoom="1.4"
     inkscape:cx="187.61184"
     inkscape:cy="200.04615"
     inkscape:document-units="mm"
     inkscape:current-layer="g1696"
     showgrid="false"
     inkscape:window-width="1680"
     inkscape:window-height="993"
     inkscape:window-x="1680"
     inkscape:window-y="0"
     inkscape:window-maximized="1"
     fit-margin-top="0"
     fit-margin-left="0"
     fit-margin-right="0"
     fit-margin-bottom="0"
     inkscape:snap-object-midpoints="true" />
  <metadata
     id="metadata991">
    <rdf:RDF>
      <cc:Work
         rdf:about="">
        <dc:format>image/svg+xml</dc:format>
        <dc:type
           rdf:resource="http://purl.org/dc/dcmitype/StillImage" />
        <dc:title></dc:title>
      </cc:Work>
    </rdf:RDF>
  </metadata>
  <g
     inkscape:label="Logo"
     inkscape:groupmode="layer"
     id="layer1"
     transform="translate(-15.780507,-8.8876533)"
     style="display:inline">
    <path
       style="fill:#87c214;stroke-width:0.26458332"
       inkscape:connector-curvature="0"
       id="path13"
       d="m 28.26884,34.763903 v 31.617708 c 0,2.566458 2.090208,4.683125 4.683125,4.683125 h 2.196041 c 2.566459,0 4.683125,-2.116667 4.683125,-4.683125 V 34.763903 Z"
       class="st1" />
    <path
       style="fill:#87c214;stroke-width:0.26458332"
       inkscape:connector-curvature="0"
       id="path15"
       d="m 39.804673,19.523903 v -5.953125 c 0,-2.566458 -2.090208,-4.6831247 -4.656667,-4.6831247 h -2.196041 c -2.566459,0 -4.683125,2.1166667 -4.683125,4.6831247 v 5.953125 z"
       class="st1" />
    <path
       style="fill:#87c214;stroke-width:0.26458332"
       inkscape:connector-curvature="0"
       id="path23"
       d="M 65.469256,45.188486 V 13.570778 c 0,-2.566458 -2.090208,-4.6831247 -4.656667,-4.6831247 h -2.196041 c -2.566459,0 -4.683125,2.1166667 -4.683125,4.6831247 v 31.617708 z"
       class="st1" />
    <path
       style="fill:#87c214;stroke-width:0.26458332"
       inkscape:connector-curvature="0"
       id="path27"
       d="m 53.933423,60.428486 v 5.953125 c 0,2.566458 2.116666,4.683125 4.683125,4.683125 h 2.196041 c 2.566459,0 4.683125,-2.116667 4.683125,-4.683125 v -5.953125 z"
       class="st1" />
    <path
       style="fill:#95d220;stroke-width:0.26458332"
       inkscape:connector-curvature="0"
       id="path35"
       d="m 26.416757,47.040569 h -5.953125 c -2.566459,0 -4.683125,2.090209 -4.683125,4.683125 v 2.196042 c 0,2.566458 2.090208,4.683125 4.683125,4.683125 h 5.953125 z"
       class="st3" />
    <path
       style="fill:#95d220;stroke-width:0.26458332"
       inkscape:connector-curvature="0"
       id="path39"
       d="M 73.274464,47.040569 H 41.656756 v 11.562292 h 31.617708 c 2.566459,0 4.683125,-2.116667 4.683125,-4.683125 v -2.196042 c 0,-2.592916 -2.116666,-4.683125 -4.683125,-4.683125 z"
       class="st3" />
    <path
       style="fill:#95d220;stroke-width:0.26458332"
       inkscape:connector-curvature="0"
       id="path49"
       d="M 52.08134,21.375986 H 20.463632 c -2.566459,0 -4.683125,2.090209 -4.683125,4.683125 v 2.196042 c 0,2.566458 2.090208,4.683125 4.683125,4.683125 H 52.08134 Z"
       class="st3" />
    <path
       style="fill:#95d220;stroke-width:0.26458332"
       inkscape:connector-curvature="0"
       id="path51"
       d="m 73.274464,21.375986 h -5.953125 v 11.562292 h 5.953125 c 2.566459,0 4.683125,-2.090208 4.683125,-4.683125 v -2.196042 c 0,-2.592916 -2.116666,-4.683125 -4.683125,-4.683125 z"
       class="st3" />
  </g>
  <g
     inkscape:groupmode="layer"
     id="layer3"
     inkscape:label="Mailbox"
     style="display:inline">
    <g
       id="g1696"
       transform="translate(93.605168,-22.3857)">
      <rect
         y="53.891731"
         x="-64.67923"
         height="24.856064"
         width="30.201456"
         id="rect1682"
         style="opacity:1;vector-effect:none;fill:#1f78d1;fill-opacity:1;stroke:none;stroke-width:0.66145831;stroke-linecap:round;stroke-linejoin:round;stroke-miterlimit:4;stroke-dasharray:none;stroke-dashoffset:0;stroke-opacity:1"
         rx="3" />
      <path
         style="opacity:1;vector-effect:none;fill:#435b7f;fill-opacity:1;stroke:none;stroke-width:2.5;stroke-linecap:round;stroke-linejoin:round;stroke-miterlimit:4;stroke-dasharray:none;stroke-dashoffset:0;stroke-opacity:1"
         d="m 120.66406,119.07812 c -3.08343,0 -5.86623,1.22333 -7.90625,3.20704 l 24.92578,23.13867 c 15.59667,14.47856 28.54649,26.28299 28.77735,26.23242 0.23085,-0.0505 13.15382,-11.89622 28.71679,-26.32422 l 24.86133,-23.04883 c -2.03975,-1.98198 -4.82238,-3.20508 -7.90429,-3.20508 z"
         transform="matrix(0.26458333,0,0,0.26458333,-93.605168,22.3857)"
         id="path1692"
         inkscape:connector-curvature="0" />
    </g>
  </g>
</svg>
