<svg width="30" height="34" viewBox="0 0 30 34" fill="none" xmlns="http://www.w3.org/2000/svg">
<path d="M 3.3339844 0 C 2.4499344 -1.4802974e-16 1.6016825 0.35788663 0.9765625 0.99414062 C 0.3514415 1.6303926 0 2.4927781 0 3.3925781 L 0 25.105469 C 0 26.005269 0.3514415 26.869559 0.9765625 27.505859 C 1.6016825 28.142059 2.4499344 28.498047 3.3339844 28.498047 L 21.490234 28.498047 L 27.539062 33.642578 C 28.515663 34.473178 30 33.766003 30 32.470703 L 30 3.3925781 C 30 2.4927781 29.648538 1.6303926 29.023438 0.99414062 C 28.398338 0.35788663 27.550016 0 26.666016 0 L 3.3339844 0 z M 5.3339844 5.4277344 L 24.666016 5.4277344 L 24.666016 15.033203 L 17.912109 15.033203 L 17.912109 18.355469 L 20.382812 18.355469 C 20.828312 18.355469 21.051228 18.904009 20.736328 19.224609 L 15.410156 24.644531 C 15.214856 24.843231 14.898425 24.843231 14.703125 24.644531 L 9.3769531 19.224609 C 9.0619731 18.904009 9.2850088 18.355469 9.7304688 18.355469 L 12.201172 18.355469 L 12.201172 15.033203 L 5.3339844 15.033203 L 5.3339844 5.4277344 z" fill="white"/>
</svg>
